<svg width="83" height="65" viewBox="0 0 83 65" fill="none" xmlns="http://www.w3.org/2000/svg">
<g id="Frame" clip-path="url(#clip0_405_303)">
<g id="Group">
<g id="Screens">
<g id="Group_2">
<g id="Vector" style="mix-blend-mode:multiply" opacity="0.5">
<path d="M82.0361 64.3814C82.0361 64.3814 82.0258 64.3505 82.0052 64.3093C81.9949 64.2783 81.9743 64.2474 81.9536 64.1959C81.9433 64.1649 81.9227 64.134 81.9021 64.0928C81.8815 64.0412 81.8505 63.9897 81.8196 63.9175C81.7887 63.8557 81.7578 63.7938 81.7268 63.7113C81.6959 63.6392 81.6547 63.5567 81.6134 63.4742C81.5928 63.433 81.5825 63.4021 81.5619 63.3711C81.4897 63.2062 81.3969 63.0206 81.3041 62.8041C81.2732 62.732 81.232 62.6495 81.2011 62.567C81.1598 62.4639 81.1083 62.3608 81.0567 62.2577C81.0258 62.1856 80.9846 62.1134 80.9536 62.0309C80.8505 61.7938 80.7268 61.5464 80.6134 61.2783C80.5928 61.2371 80.5722 61.1959 80.5619 61.1546C80.4897 60.9897 80.4072 60.8144 80.3248 60.6392C80.3248 60.6289 80.3145 60.6082 80.3041 60.5979C80.2732 60.5258 80.232 60.4433 80.2011 60.3608C80.098 60.134 79.9949 59.8969 79.8815 59.6598C79.7784 59.433 79.6753 59.2062 79.5619 58.9691C79.4485 58.7216 79.3351 58.4742 79.2217 58.2165C79.1804 58.1237 79.1392 58.0309 79.098 57.9381C78.5516 56.732 77.9433 55.3814 77.2629 53.8969C76.8402 52.9691 76.4072 52 75.9433 50.9691C75.3041 49.5567 74.6237 48.0412 73.9021 46.4639C73.8093 46.2474 73.7062 46.0309 73.6031 45.8144C73.3351 45.2165 73.0567 44.6082 72.7887 44C72.634 43.6598 72.4794 43.3196 72.3248 42.9794C72.0258 42.3196 71.7268 41.6598 71.4279 40.9897C71.3866 40.8969 71.3454 40.7938 71.2938 40.701L47.6547 23.5979L30.5413 11.1959L30.067 10.8557L26.1907 8.05154L19.8918 3.49484C19.8918 3.49484 15.7681 3.7835 11.366 5.76288C11.0567 5.8969 10.7474 6.05154 10.4382 6.20618C8.8093 7.03092 7.18043 8.09278 5.73713 9.47422C5.44847 9.75257 5.15981 10.0515 4.89177 10.3505C4.64435 10.6186 4.40723 10.9072 4.18043 11.2062C3.88146 11.5876 3.60311 11.9897 3.33507 12.4124C3.19074 12.6392 3.05672 12.8763 2.9227 13.1134C2.8196 13.299 2.72682 13.4845 2.63404 13.6701C2.53094 13.866 2.43816 14.0722 2.35569 14.2783C2.2629 14.4948 2.17012 14.7216 2.07734 14.9484C2.02579 15.0928 1.96393 15.2268 1.91239 15.3711C1.79899 15.6907 1.7062 16.0103 1.60311 16.3505C1.56187 16.4845 1.53094 16.6289 1.48971 16.7629C1.39692 17.1237 1.32476 17.4845 1.25259 17.866C1.23198 17.9691 1.22167 18.0619 1.20105 18.1649C1.20105 18.1856 1.20105 18.2062 1.20105 18.2165C1.13919 18.6082 1.08765 19 1.04641 19.4021C1.04641 19.4845 1.0361 19.5567 1.02579 19.6392C0.994862 20.0722 0.974243 20.5155 0.974243 20.9691C0.974243 21.0309 0.974243 21.0928 0.974243 21.1546C0.974243 21.1856 0.974243 21.2268 0.974243 21.2577C0.974243 21.7423 0.994862 22.2371 1.02579 22.7423C1.02579 22.8454 1.04641 22.9588 1.04641 23.0619C1.08765 23.5773 1.1495 24.1134 1.23198 24.6598C1.24228 24.7423 1.2629 24.835 1.27321 24.9278C1.366 25.5155 1.46909 26.1134 1.60311 26.732C1.60311 26.7526 1.62373 26.7835 1.65466 26.8144C1.65466 26.8247 1.68558 26.8454 1.69589 26.8557C1.71651 26.8866 1.73713 26.9072 1.77837 26.9381C1.79899 26.9588 1.82991 26.9897 1.85053 27.0103C1.88146 27.0412 1.9227 27.0722 1.96393 27.1134C1.99486 27.1443 2.0361 27.1753 2.07734 27.2062C2.11857 27.2474 2.17012 27.2887 2.22167 27.3299C2.2629 27.3711 2.31445 27.4124 2.366 27.4536C2.41754 27.4948 2.4794 27.5464 2.53094 27.5979C2.58249 27.6392 2.64435 27.6907 2.7062 27.7423C2.76806 27.7938 2.82991 27.8454 2.90208 27.8969C2.97424 27.9484 3.04641 28.0103 3.11857 28.0619C3.19074 28.1134 3.2629 28.1753 3.33507 28.2268C3.41754 28.2887 3.50002 28.3505 3.58249 28.4227C3.65466 28.4845 3.73713 28.5361 3.80929 28.5979C3.90208 28.6701 3.99486 28.7423 4.09795 28.8144C4.18043 28.8763 4.2629 28.9381 4.35569 29.0103C4.45878 29.0928 4.56187 29.1649 4.67527 29.2474C4.76806 29.3196 4.86084 29.3814 4.95362 29.4536C5.06703 29.5361 5.18043 29.6186 5.29383 29.701C5.38661 29.7732 5.48971 29.8454 5.5928 29.9278C5.62373 29.9485 5.65466 29.9794 5.69589 30C5.73713 30.0309 5.78868 30.0722 5.82991 30.1031C5.82991 30.1031 5.82991 30.1031 5.84022 30.1031C6.28352 30.4536 6.84022 30.8763 7.4794 31.3608C7.52064 31.3917 7.55156 31.4124 7.5928 31.4433C7.71651 31.5361 7.85053 31.6392 7.98455 31.7423C8.04641 31.7835 8.09795 31.835 8.15981 31.8763C8.28352 31.9691 8.41754 32.0722 8.55156 32.1649C8.62373 32.2165 8.7062 32.2783 8.77837 32.3299C8.90208 32.4227 9.02579 32.5155 9.15981 32.6082C9.25259 32.6804 9.35569 32.7526 9.45878 32.8247C9.58249 32.9175 9.69589 33 9.8196 33.0928C9.93301 33.1753 10.0464 33.2577 10.1598 33.3402C10.2835 33.433 10.3969 33.5155 10.5206 33.6082C10.6443 33.701 10.7784 33.7938 10.9021 33.8866C11.0155 33.9691 11.1392 34.0619 11.2629 34.1443C11.4794 34.299 11.6959 34.4536 11.9124 34.6186C11.9536 34.6495 11.9846 34.6701 12.0155 34.701C12.0155 34.6701 12.0258 34.6289 12.0361 34.5979C13.4588 35.6186 14.9949 36.7113 16.5825 37.8454C16.6134 37.866 16.634 37.8866 16.665 37.9072C21.8196 41.567 27.6753 45.6701 33.201 49.5361C33.2217 49.5464 33.2423 49.567 33.2629 49.5773C34.0258 50.1134 34.7887 50.6495 35.5413 51.1649C35.6031 51.2062 35.6547 51.2474 35.7165 51.2887C36.0258 51.5051 36.3351 51.7216 36.634 51.9278C36.665 51.9484 36.7062 51.9794 36.7371 52C37.1907 52.3196 37.634 52.6289 38.0773 52.9381C38.1392 52.9794 38.201 53.0206 38.2526 53.0619C38.3041 53.0928 38.3454 53.1237 38.3969 53.1649C38.5722 53.2887 38.7474 53.4021 38.9124 53.5258C39.0155 53.5979 39.1289 53.6701 39.232 53.7423C39.9536 54.2371 40.6547 54.732 41.3351 55.2062C41.4485 55.2887 41.5722 55.3711 41.6856 55.4536C41.8402 55.5567 41.9846 55.6598 42.1392 55.7732C42.2732 55.866 42.4072 55.9588 42.5516 56.0619C43.1701 56.4948 43.7784 56.9175 44.366 57.3196C44.4897 57.4021 44.6134 57.4948 44.7371 57.5773C44.8815 57.6804 45.0258 57.7835 45.1701 57.8763C45.2526 57.9381 45.3454 58 45.4279 58.0515C45.6959 58.2371 45.9639 58.4227 46.2217 58.5979C46.3969 58.7216 46.5619 58.835 46.7371 58.9588C46.7371 58.9588 46.7577 58.9691 46.7681 58.9794C47.0155 59.1443 47.2526 59.3196 47.4897 59.4742C47.6237 59.567 47.7474 59.6495 47.8712 59.7423C47.933 59.7835 47.9949 59.8247 48.0567 59.866C48.2629 60.0103 48.4691 60.1546 48.665 60.2887C48.7681 60.3608 48.8712 60.433 48.9742 60.5051C49.098 60.5876 49.2217 60.6701 49.3351 60.7526C50.0155 61.2268 50.6443 61.6598 51.1907 62.0412C51.3351 62.1443 51.4691 62.2371 51.6031 62.3196C51.7578 62.4227 51.9021 62.5258 52.0361 62.6186C52.098 62.6598 52.1598 62.701 52.2217 62.7526C52.2629 62.7835 52.3041 62.8041 52.3454 62.835C52.7578 63.1237 53.098 63.3608 53.366 63.5361C53.5928 63.6907 53.7474 63.8041 53.8505 63.8763C53.9433 63.9381 53.9949 63.9794 53.9949 63.9794C53.9949 63.9794 54.0258 63.9794 54.067 63.9794C54.067 63.9794 54.067 63.9794 54.0773 63.9794C54.1392 63.9794 54.2114 63.9794 54.3351 63.9897C54.7371 64.0103 55.5 64.0412 56.5516 64.0722C58.7268 64.1546 62.1392 64.2577 66.2629 64.3299C66.2629 64.3299 66.2732 64.3299 66.2835 64.3299C66.8299 64.3299 67.3866 64.3505 67.9639 64.3608C68.1289 64.3608 68.3041 64.3608 68.4691 64.3608C68.4691 64.3608 68.4794 64.3608 68.4897 64.3608C70.5 64.3917 72.634 64.4124 74.8402 64.4124C75.098 64.4124 75.3454 64.4124 75.6031 64.4124C75.6237 64.4124 75.6443 64.4124 75.665 64.4124H75.6856C75.7784 64.4124 75.8608 64.4124 75.9536 64.4124C76.8402 64.4124 77.7474 64.4124 78.6547 64.4124C78.6547 64.4124 78.665 64.4124 78.6753 64.4124C78.7474 64.4124 78.8299 64.4124 78.9021 64.4124C79.933 64.4124 80.9846 64.3917 82.0258 64.3814H82.0361Z" fill="#6399FB"/>
</g>
<g id="Group_3">
<g id="Group_4">
<path id="Vector_2" d="M1.61341 23.2474C1.88145 24.4948 53.9846 60.4948 53.9846 60.4948C53.9846 60.4948 67.6031 61.1134 82.0361 60.8969C82.0361 60.8969 77.5825 51.134 71.3144 37.2062L19.8918 0C19.8918 0 -3.11855 1.59794 1.61341 23.2474Z" fill="#D75EA1"/>
<g id="Vector_3" style="mix-blend-mode:screen" opacity="0.5">
<path d="M24.7887 3.54639C22.665 6.29896 21.1083 9.26804 22.7371 10.732C23.1598 11.1134 64.1804 40.1237 64.1804 40.1237C64.1804 40.1237 77.7784 56.2062 81.9948 60.8866C82.0052 60.8866 82.0258 60.8866 82.0361 60.8866C82.0361 60.8866 77.5825 51.1237 71.3144 37.1959L24.7887 3.54639Z" fill="#D75EA1"/>
</g>
<g id="Vector_4" style="mix-blend-mode:multiply" opacity="0.5">
<path d="M53.9846 60.4948C53.9846 60.4948 67.3969 61.1031 81.6959 60.8969L56.5619 48.0515L16.0773 19.1649C16.0773 19.1649 12.8711 26.3814 11.3041 30.5876C26.4382 41.4536 53.9949 60.4948 53.9949 60.4948H53.9846Z" fill="#D75EA1"/>
</g>
<g id="Vector_5" style="mix-blend-mode:multiply" opacity="0.5">
<path d="M71.3041 37.1959L60.5722 29.433C64.4175 37.0206 58.7577 45.433 50.5722 48.3918C44.6856 50.5258 15.5412 33.0928 17.1701 24.1134C18.6443 15.9794 28.6546 8.95876 30.5412 7.70103L30.067 7.36082C18.6753 5.3299 12.2629 20.9485 9.65465 29.4021C24.3351 40 53.9845 60.4948 53.9845 60.4948C53.9845 60.4948 60.6031 60.7938 69.4897 60.8969C71.9949 57.5361 73.9124 52.866 75.9433 47.4742C74.5619 44.4227 73.0052 40.9691 71.3041 37.1959Z" fill="#D75EA1"/>
</g>
<path id="Vector_6" d="M53.9845 60.4948C53.9845 60.4948 67.6031 61.1134 82.0361 60.8969C82.0361 60.8969 77.5825 51.134 71.3144 37.2062L70.5619 36.6598C54.5722 43.1443 53.7165 56.3505 53.8505 60.4021C53.9433 60.4639 53.9949 60.5051 53.9949 60.5051L53.9845 60.4948Z" fill="#F1D85A"/>
<g id="Vector_7" style="mix-blend-mode:multiply">
<path d="M54.6959 60.5258C57.6237 60.6495 69.3144 61.0722 81.6753 60.8969C81.6753 60.8969 81.6856 60.8969 81.6959 60.8969L56.8093 48.1753C53.9949 53.2577 53.7681 58.1856 53.8402 60.3918C53.9227 60.4536 53.9845 60.4949 53.9845 60.4949C53.9845 60.4949 54.1289 60.4949 54.3866 60.5155C54.4794 60.5155 54.5825 60.5155 54.6959 60.5258Z" fill="#F1D85A"/>
</g>
<g id="Vector_8" style="mix-blend-mode:multiply">
<path d="M79.0464 54.3196C77.2629 59.5052 69.1701 58.9278 63.8712 56.3299C57.634 53.2577 59.5103 45.866 59.9949 43.7526C54.1495 50.1443 53.7474 57.5464 53.8402 60.4021C53.933 60.4639 53.9846 60.5052 53.9846 60.5052C53.9846 60.5052 67.6031 61.1237 82.0361 60.9072C82.0361 60.9072 80.933 58.4845 79.0464 54.3299V54.3196Z" fill="#F1D85A"/>
</g>
<path id="Vector_9" d="M69.6031 60.9072C73.4382 60.9485 77.6959 60.9588 82.0361 60.8969C82.0361 60.8969 80.201 56.8763 77.2423 50.3402C73.1186 53.6186 70.8402 57.4536 69.6031 60.9072Z" fill="white"/>
<g id="Vector_10" style="mix-blend-mode:multiply">
<path d="M81.7268 60.2268C81.6959 60.1546 81.6547 60.0722 81.6134 59.9897C81.5928 59.9484 81.5825 59.9175 81.5619 59.8866C81.4897 59.7216 81.3969 59.5361 81.3041 59.3196C81.2526 59.2062 81.201 59.0825 81.1392 58.9588C81.0773 58.8247 81.0155 58.6907 80.9536 58.5464C80.8402 58.2887 80.7062 58.0103 80.5722 57.7113C80.4897 57.5258 80.4072 57.3505 80.3144 57.1546C80.3041 57.1237 80.2835 57.0928 80.2732 57.0618C79.9124 56.2783 79.5103 55.3917 79.067 54.3917C79.0567 54.3608 79.0464 54.3402 79.0361 54.3196C77.9433 57.4948 74.4897 58.5051 70.7577 58.2165C70.2938 59.1237 69.9124 60.0309 69.6031 60.9072C69.6031 60.9072 69.6031 60.9072 69.6134 60.9072C71.5206 60.9278 73.5309 60.9484 75.6031 60.9484C75.634 60.9484 75.6547 60.9484 75.6856 60.9484C76.665 60.9484 77.665 60.9484 78.665 60.9381C78.7474 60.9381 78.8299 60.9381 78.9124 60.9381C79.9433 60.9381 80.9845 60.9175 82.0361 60.9072C82.0361 60.9072 81.9846 60.7835 81.8815 60.5773C81.8402 60.4845 81.7887 60.3711 81.7268 60.2474V60.2268Z" fill="#D8E7FD"/>
</g>
<g id="Vector_11" style="mix-blend-mode:multiply">
<path d="M72.067 55.9794C70.9742 57.6392 70.1701 59.3093 69.6031 60.9072C69.7165 60.9072 69.8299 60.9072 69.933 60.9072C70.6753 60.9072 71.4382 60.9175 72.2113 60.9278C72.3454 60.9278 72.4794 60.9278 72.6237 60.9278C73.4794 60.9278 74.366 60.9278 75.2526 60.9278C75.5619 60.9278 75.8711 60.9278 76.1804 60.9278C76.8299 60.9278 77.4794 60.9278 78.1289 60.9278C78.4485 60.9278 78.7681 60.9278 79.0979 60.9278C79.9536 60.9278 80.8196 60.9072 81.6959 60.8969L72.067 55.9794Z" fill="#D8E7FD"/>
</g>
<g id="Vector_12" style="mix-blend-mode:screen" opacity="0.5">
<path d="M64.1495 40.1031L64.1804 40.1237C64.1804 40.1237 77.7784 56.2062 81.9949 60.8866C82.0052 60.8866 82.0258 60.8866 82.0361 60.8866C82.0361 60.8866 77.5825 51.1237 71.3145 37.1959L70.5619 36.6495C68.0773 37.6598 65.9639 38.8248 64.1495 40.1031Z" fill="#F1D85A"/>
</g>
<path id="Vector_13" d="M22.7887 2.20619C22.7887 2.20619 -0.211329 3.80412 4.51032 25.4433C4.57218 25.7423 7.53094 27.9691 12.0052 31.2062C12.8815 25.7732 16.2629 13.0619 29.098 6.76289L22.7887 2.19588V2.20619Z" fill="white"/>
<g id="Vector_14" style="mix-blend-mode:multiply">
<path d="M4.64435 25.6186C5.2526 26.2474 8.02579 28.3299 12.0052 31.2165C12.8815 25.7835 16.2629 13.0722 29.098 6.7732L22.7887 2.20619C22.7887 2.20619 21.4382 2.29898 19.4588 2.75258C18.665 5.13403 19.098 7.02063 21.1392 6.19588C26.4279 4.07217 25.9639 6.17526 20.7062 11.5567C15.4485 16.9382 13.8505 22.8041 12.4175 23.0825C10.9846 23.3608 11.9227 19.1546 12.1701 18.5361L4.64435 25.6289V25.6186Z" fill="#D8E7FD"/>
</g>
<path id="Vector_15" d="M19.8918 0C19.8918 0 -3.11855 1.59794 1.61341 23.2474C1.67527 23.5464 4.63403 25.7732 9.10826 29.0103C9.98455 23.5773 13.366 10.866 26.201 4.56701L19.8918 0Z" fill="#F1D85A"/>
<g id="Vector_16" style="mix-blend-mode:multiply">
<path d="M17.5722 0.329897C19.2629 1.80412 20.7681 4.08247 17.8815 6.34021C13.0258 10.1134 9.57218 18.1031 4.77837 16.2062C2.12888 15.1546 2.40723 11.8866 3.19074 9.16495C1.18043 12.5052 0.262902 17.0515 1.61342 23.2474C1.67527 23.5464 4.63404 25.7732 9.10826 29.0103C9.98455 23.5773 13.366 10.866 26.201 4.56701L19.8918 0C19.8918 0 18.9846 0.0618557 17.5722 0.329897Z" fill="#F1D85A"/>
</g>
<g id="Group_5" style="mix-blend-mode:screen" opacity="0.5">
<path id="Vector_17" d="M67.768 37.1031C67.5825 37.1856 67.3763 37.1649 67.201 37.0412C30.1083 10.6186 29.9124 10.1649 29.8299 9.96907C29.7062 9.6701 29.8299 9.32989 30.1289 9.20618C30.3763 9.10309 30.6546 9.17525 30.8093 9.38144C31.8711 10.3711 53.5 25.8763 67.8711 36.1031C68.1289 36.2887 68.1907 36.6495 68.0052 36.9175C67.9433 37.0103 67.8608 37.0722 67.768 37.1134V37.1031Z" fill="#D75EA1"/>
</g>
<g id="Group_6" style="mix-blend-mode:screen">
<path id="Vector_18" d="M4.92269 12.4742C4.92269 12.4742 4.82991 12.5052 4.76805 12.5155C4.44846 12.5567 4.1598 12.3402 4.10826 12.0206C4.02578 11.433 4.25259 10.9072 4.50001 10.4124C6.25259 7.06186 9.2629 4.36082 12.8093 2.97938C13.1083 2.86598 13.4485 3.01031 13.5619 3.30928C13.6753 3.60825 13.5412 3.95876 13.232 4.06185C9.97424 5.3299 7.1598 7.83505 5.53094 10.9485C5.34537 11.3093 5.22166 11.6082 5.25259 11.8557C5.29382 12.1237 5.13918 12.3711 4.91238 12.4639L4.92269 12.4742Z" fill="#F1D85A"/>
</g>
<g id="Group_7" style="mix-blend-mode:screen">
<path id="Vector_19" d="M16.5516 2.73196C16.4897 2.75258 16.4278 2.7732 16.366 2.78351C16.0155 2.80413 15.665 2.92784 15.3763 3.12371C15.1186 3.30928 14.7474 3.22681 14.5722 2.95876C14.3969 2.69072 14.4691 2.3299 14.7268 2.15464C15.1907 1.84536 15.7268 1.6598 16.2835 1.61856C16.6031 1.59794 16.8815 1.83505 16.9021 2.15464C16.9227 2.41237 16.7784 2.62887 16.5516 2.73196Z" fill="#F1D85A"/>
</g>
<g id="Vector_20" style="mix-blend-mode:screen">
<path d="M76.4794 51.8144C76.1907 51.9485 75.8505 51.8144 75.7165 51.5361L69.7474 38.7835C69.6134 38.4948 69.7371 38.1443 70.0258 38.0103C70.3144 37.8763 70.6546 38.0103 70.7887 38.2887L76.7577 51.0412C76.8918 51.3299 76.768 51.6804 76.4794 51.8144ZM79.0258 56.2784L77.3351 52.5464C77.201 52.2577 76.8608 52.1237 76.5722 52.2577C76.2835 52.3918 76.1495 52.732 76.2835 53.0206L77.9742 56.7526C78.1083 57.0412 78.4485 57.1753 78.7371 57.0412C79.0258 56.9072 79.1598 56.567 79.0258 56.2784Z" fill="#F1D85A"/>
</g>
<g id="Vector_21" style="mix-blend-mode:multiply">
<path d="M9.10827 29.0103C9.98455 23.5773 13.366 10.866 26.201 4.56701L19.8918 0C19.8918 0 19.665 0.0206186 19.2629 0.0618557C22.0052 2.56701 22.1495 3.38144 16.0052 9.90722C8.93301 17.433 8.87115 20.8041 6.81961 22.0928C5.21136 23.0928 2.34538 20.2577 1.00517 18.866C1.07734 20.2268 1.27321 21.6804 1.61342 23.2474C1.67528 23.5464 4.63404 25.7732 9.10827 29.0103Z" fill="#F1D85A"/>
</g>
</g>
</g>
</g>
</g>
</g>
</g>
<defs>
<clipPath id="clip0_405_303">
<rect width="81.0516" height="65" fill="white" transform="translate(0.974243)"/>
</clipPath>
</defs>
</svg>
