<svg width="230" height="195" viewBox="0 0 230 195" fill="none" xmlns="http://www.w3.org/2000/svg">
<g id="Screens">
<g id="Group">
<g id="Group_2">
<g id="Group_3">
<g id="Group_4" style="mix-blend-mode:multiply" opacity="0.5">
<path id="Vector" d="M208.87 195H13.8698V0H208.87V195ZM16.4069 192.463H206.333V2.5371H16.4069V192.463Z" fill="#6399FB"/>
</g>
<g id="Group_5" style="mix-blend-mode:multiply" opacity="0.5">
<path id="Vector_2" d="M99.7471 88.3802H25.5747V14.2077H99.7471V88.3802Z" fill="#6399FB"/>
</g>
<g id="Group_6" style="mix-blend-mode:multiply" opacity="0.5">
<path id="Vector_3" d="M197.24 88.3802H123.068V14.2077H197.24V88.3802Z" fill="#6399FB"/>
</g>
</g>
<g id="Group_7" style="mix-blend-mode:multiply" opacity="0.5">
<path id="Vector_4" d="M99.7471 180.038H25.5747V105.866H99.7471V180.038Z" fill="#6399FB"/>
</g>
<g id="Group_8" style="mix-blend-mode:multiply" opacity="0.5">
<path id="Vector_5" d="M197.24 180.038H123.068V105.866H197.24V180.038Z" fill="#6399FB"/>
</g>
</g>
<g id="Group_9">
<g id="Group_10">
<g id="Group_11">
<g id="Vector_6" style="mix-blend-mode:multiply" opacity="0.5">
<path d="M202.733 139.753C202.733 139.753 202.719 139.739 202.705 139.726C202.698 139.719 202.685 139.705 202.678 139.691C202.644 139.657 202.609 139.616 202.561 139.568C202.541 139.547 202.527 139.534 202.507 139.513C202.075 139.06 201.108 138.052 199.64 136.551C199.613 136.523 199.579 136.489 199.551 136.462C198.262 135.152 196.603 133.479 194.587 131.49C194.443 131.346 194.305 131.209 194.155 131.065C190.555 127.52 182.882 126.725 179.926 126.546C179.837 126.546 179.755 126.539 179.673 126.533C179.631 126.533 179.59 126.533 179.549 126.533C179.501 126.533 179.46 126.533 179.419 126.533C179.378 126.533 179.343 126.533 179.309 126.533C179.268 126.533 179.234 126.533 179.199 126.533C179.151 126.533 179.11 126.533 179.069 126.533C179.035 126.533 179.001 126.533 178.966 126.533C178.946 126.533 178.932 126.533 178.911 126.533C178.884 126.533 178.863 126.533 178.843 126.533C178.829 126.533 178.815 126.533 178.809 126.533C178.781 126.533 178.761 126.533 178.754 126.533L17.2983 126.032C16.6058 125.984 7.8425 125.538 2.08945 133.691C1.9386 133.904 1.80832 134.11 1.68489 134.315C1.59575 134.459 1.51347 134.603 1.43118 134.74C0.423199 136.51 0.210631 138.052 0.807192 139.328C1.92489 141.707 5.51797 142.324 7.56136 142.482C11.3944 142.777 17.8537 142.653 23.0377 142.551C24.4502 142.523 25.7873 142.496 26.9667 142.482C27.2753 142.482 27.5701 142.482 27.8444 142.482C27.9061 142.482 27.961 142.482 28.0296 142.482C28.2353 142.482 28.441 142.482 28.6261 142.489C28.7016 142.489 28.7633 142.489 28.8387 142.496C29.0033 142.496 29.1678 142.509 29.3187 142.516C29.3804 142.516 29.4353 142.523 29.497 142.53C29.641 142.537 29.7918 142.544 29.9221 142.557C29.9701 142.557 30.0181 142.564 30.0661 142.571C30.1964 142.585 30.3335 142.592 30.4501 142.605C30.4912 142.605 30.5187 142.612 30.5598 142.619C30.6764 142.633 30.7929 142.647 30.9027 142.66C30.9369 142.66 30.9644 142.667 30.9918 142.674C31.0947 142.688 31.1907 142.701 31.2798 142.722C31.3072 142.722 31.3278 142.729 31.3552 142.736C31.4375 142.749 31.5266 142.77 31.5952 142.784C31.6158 142.784 31.6364 142.797 31.6569 142.797C31.7255 142.811 31.7941 142.832 31.8558 142.852C31.8764 142.852 31.8901 142.866 31.9106 142.866C31.9655 142.88 32.0204 142.9 32.0684 142.914C32.0821 142.914 32.0958 142.928 32.1164 142.935C32.1575 142.948 32.1986 142.969 32.2329 142.983C32.2466 142.989 32.2604 142.996 32.2741 143.003C32.3015 143.017 32.3289 143.031 32.3563 143.044C32.3701 143.051 32.3838 143.058 32.3906 143.065C32.4112 143.079 32.4249 143.085 32.4455 143.099C32.4592 143.106 32.4661 143.12 32.4798 143.127C32.4866 143.133 32.5003 143.14 32.5072 143.154C32.5209 143.168 32.5278 143.175 32.5346 143.181C32.5346 143.181 32.5415 143.188 32.5483 143.195C32.5552 143.209 32.5621 143.216 32.5689 143.229C32.5689 143.243 32.7198 143.62 31.4855 144.951C30.5804 145.924 29.305 146.027 27.8239 146.144C25.8422 146.301 23.5931 146.487 22.0365 148.941C21.1931 150.279 21.0217 151.403 21.536 152.294C22.352 153.721 24.5599 153.817 25.1702 153.817C25.2319 153.817 25.2799 153.817 25.3005 153.817L25.2525 152.322C24.6422 152.342 23.1885 152.171 22.8319 151.554C22.5508 151.06 23.0034 150.21 23.2982 149.744C24.4502 147.92 26.0685 147.789 27.9336 147.639C29.5724 147.508 31.2729 147.371 32.5758 145.972C32.6923 145.849 32.8089 145.719 32.9186 145.588C33.2135 145.252 33.4878 144.882 33.6935 144.512C33.6935 144.505 33.7072 144.491 33.7072 144.484C33.7552 144.395 33.8032 144.299 33.8443 144.21C33.8443 144.203 33.8443 144.196 33.8512 144.189C33.8923 144.093 33.9266 143.997 33.9609 143.895C33.9609 143.881 33.9677 143.867 33.9746 143.847C33.9952 143.764 34.0157 143.682 34.0295 143.6C34.0295 143.579 34.0363 143.559 34.0432 143.538C34.0569 143.442 34.0637 143.346 34.0637 143.257C34.0637 143.243 34.0637 143.229 34.0637 143.216C34.0637 143.133 34.05 143.058 34.0363 142.976C34.0363 142.948 34.0295 142.928 34.0226 142.9C34.002 142.811 33.9746 142.715 33.9335 142.626C33.5358 141.728 32.3838 141.234 30.073 141.056C30.0387 141.056 30.0044 141.056 29.9701 141.049C29.8467 141.042 29.7233 141.035 29.5998 141.028C29.5244 141.028 29.449 141.022 29.3735 141.015C29.2638 141.015 29.1473 141.008 29.0307 141.001C28.9278 141.001 28.825 141.001 28.7153 140.994C28.6124 140.994 28.5027 140.994 28.393 140.994C28.2559 140.994 28.1119 140.994 27.9679 140.994C27.8787 140.994 27.7896 140.994 27.7004 140.994C27.4604 140.994 27.2136 140.994 26.953 140.994C25.7736 141.008 24.4365 141.035 23.0171 141.063C20.2948 141.118 17.2298 141.172 14.3772 141.172C11.8264 141.172 9.4539 141.131 7.67793 140.994C6.29281 140.884 2.99458 140.452 2.16488 138.697C2.07574 138.512 2.02774 138.299 2.00031 138.087C1.94546 137.648 2.01403 137.147 2.21288 136.599C2.2266 136.558 2.24031 136.523 2.25402 136.482C2.28831 136.386 2.33631 136.283 2.37745 136.18C2.41173 136.105 2.44602 136.023 2.48716 135.947C2.5283 135.858 2.5763 135.776 2.61745 135.687C2.67916 135.577 2.74087 135.467 2.80259 135.358C2.84373 135.289 2.88487 135.22 2.92601 135.145C3.04258 134.953 3.17286 134.761 3.31 134.562C8.6722 126.971 17.1269 127.527 17.2092 127.534H17.2366L178.74 128.041C178.74 128.041 178.754 128.041 178.767 128.041C178.802 128.041 178.87 128.041 178.966 128.041C180.475 128.096 189.444 128.555 193.119 132.169C193.318 132.361 193.503 132.546 193.688 132.731C198.845 137.826 201.663 140.823 201.691 140.85L202.781 139.822C202.781 139.822 202.767 139.808 202.753 139.787L202.733 139.753Z" fill="#6399FB"/>
</g>
<g id="Group_12">
<path id="Vector_7" d="M25.8559 152.041C25.2456 152.041 23.0377 151.938 22.2217 150.518C21.7142 149.627 21.8788 148.496 22.7222 147.165C24.2788 144.711 26.521 144.525 28.5096 144.368C29.9907 144.251 31.2661 144.148 32.1712 143.175C33.4055 141.844 33.2615 141.467 33.2546 141.454C33.1929 141.316 32.6375 140.638 27.6661 140.706C26.4867 140.72 25.1565 140.747 23.7371 140.775C18.5463 140.878 12.087 141.001 8.26077 140.706C6.21738 140.548 2.6243 139.931 1.5066 137.552C0.793475 136.03 1.22547 134.13 2.78887 131.915C8.54877 123.762 17.312 124.208 17.9977 124.256L179.453 124.757C179.906 124.757 190.445 124.969 194.868 129.323C200.415 134.788 203.453 138.018 203.48 138.046L202.39 139.074C202.39 139.074 199.339 135.838 193.812 130.393C189.814 126.457 179.542 126.258 179.439 126.258L17.936 125.758H17.9086C17.8263 125.751 9.37847 125.189 4.00942 132.779C2.77515 134.528 2.3843 135.92 2.85744 136.914C3.68028 138.67 6.98537 139.108 8.37048 139.211C12.1281 139.499 18.5463 139.376 23.7028 139.28C25.1222 139.252 26.4593 139.225 27.6387 139.211C32.1095 139.15 34.0637 139.616 34.6192 140.85C35.1197 141.982 34.1597 143.236 33.2683 144.196C31.9655 145.595 30.2718 145.732 28.6261 145.863C26.7542 146.013 25.1428 146.144 23.9908 147.968C23.6959 148.434 23.2434 149.291 23.5245 149.778C23.8811 150.395 25.3348 150.573 25.945 150.546L25.993 152.041C25.993 152.041 25.9245 152.041 25.8627 152.041H25.8559Z" fill="#3A4587"/>
<g id="Group_13" style="mix-blend-mode:multiply" opacity="0.51">
<path id="Vector_8" d="M199.88 134.308C199.846 134.542 199.531 134.74 199.284 134.535C196.939 132.581 195.204 129.762 192.255 128.631C191.844 128.473 192.022 127.808 192.44 127.966C193.531 128.384 194.456 129.015 195.307 129.735C195.163 129.591 195.025 129.454 194.875 129.31C190.459 124.956 179.919 124.75 179.46 124.743L18.0046 124.242C17.312 124.194 8.54877 123.749 2.79573 131.902C1.22547 134.123 0.793479 136.016 1.51347 137.538C2.63116 139.918 6.22424 140.535 8.26763 140.692C12.1007 140.987 18.56 140.864 23.7439 140.761C25.1565 140.734 26.4936 140.706 27.673 140.692C32.6443 140.631 33.1998 141.303 33.2615 141.44C33.2615 141.454 33.4123 141.831 32.1781 143.161C31.2729 144.135 29.9975 144.237 28.5164 144.354C26.5347 144.512 24.2856 144.697 22.7291 147.152C21.8857 148.489 21.7143 149.613 22.2285 150.505C23.0445 151.931 25.2525 152.027 25.8628 152.027C25.9245 152.027 25.9725 152.027 25.993 152.027L25.945 150.532C25.3348 150.553 23.8811 150.381 23.5245 149.764C23.2434 149.271 23.6959 148.42 23.9908 147.954C25.1428 146.13 26.761 146 28.6261 145.849C30.265 145.719 31.9655 145.581 33.2683 144.183C33.3849 144.059 33.5015 143.929 33.6112 143.799C32.3152 145.108 29.737 145.513 28.0501 145.533C27.6044 145.533 27.6044 144.848 28.0501 144.848C29.977 144.827 34.1597 144.244 33.7072 141.502C33.6386 141.07 34.2969 140.884 34.3723 141.316C34.5026 142.119 34.3449 142.77 34.002 143.312C34.5849 142.523 34.9826 141.652 34.6192 140.836C34.0706 139.595 32.1095 139.129 27.6387 139.198C26.4593 139.211 25.1222 139.239 23.7028 139.266C18.5463 139.369 12.1281 139.492 8.37049 139.198C6.98537 139.088 3.68714 138.656 2.85744 136.9C2.39116 135.899 2.77516 134.507 4.00942 132.766C9.37161 125.175 17.8263 125.73 17.9086 125.737H17.936L179.439 126.245C179.542 126.245 189.821 126.443 193.812 130.379C199.339 135.824 202.356 139.033 202.39 139.06L203.48 138.032C203.48 138.032 202.212 136.688 199.873 134.308H199.88ZM24.8273 150.676C25.273 150.69 25.273 151.376 24.8273 151.362C24.1142 151.341 23.4971 151.053 22.8457 150.8C22.4342 150.642 22.6125 149.977 23.0308 150.135C23.6205 150.361 24.1828 150.656 24.8273 150.676ZM26.3633 139.636H27.9816C28.4273 139.636 28.4273 140.322 27.9816 140.322H26.3633C25.9176 140.322 25.9176 139.636 26.3633 139.636ZM9.04933 139.636H25.1085C25.5542 139.636 25.5542 140.322 25.1085 140.322H9.04248C8.59677 140.322 8.59677 139.636 9.04248 139.636H9.04933ZM2.0346 134.343C2.33631 134.014 2.82316 134.507 2.52145 134.83C2.41859 134.939 2.38431 135.035 2.38431 135.186C2.37059 135.632 1.68489 135.632 1.69861 135.186C1.70546 134.85 1.81518 134.59 2.04146 134.343H2.0346ZM5.63454 139.095H5.93625C6.38195 139.095 6.38195 139.78 5.93625 139.78H5.63454C5.18883 139.78 5.18883 139.095 5.63454 139.095ZM4.79112 138.903C5.18197 139.108 4.83226 139.705 4.44141 139.499C3.26201 138.868 1.90432 138.059 1.58889 136.66C1.4929 136.228 2.15117 136.043 2.25402 136.475C2.52831 137.689 3.77628 138.368 4.79112 138.903ZM12.4984 126.114C10.5099 126.8 8.41163 127.65 6.77966 129.022C5.33283 130.242 4.24942 131.874 3.06315 133.335C2.78202 133.678 2.30202 133.191 2.5763 132.848C3.89285 131.23 5.08597 129.413 6.77966 128.158C8.4322 126.93 10.3796 126.114 12.3133 125.449C12.7316 125.305 12.9098 125.97 12.4984 126.114ZM14.0275 125.648C13.9384 125.648 13.863 125.669 13.7944 125.73C13.4584 126.018 12.9715 125.532 13.3075 125.244C13.5201 125.058 13.7532 124.976 14.0275 124.962C14.4732 124.942 14.4664 125.628 14.0275 125.648ZM42.9299 125.353H16.9418C16.4961 125.353 16.4961 124.668 16.9418 124.668H42.923C43.3687 124.668 43.3687 125.353 42.923 125.353H42.9299ZM179.33 125.751H176.368C175.922 125.751 175.922 125.065 176.368 125.065H179.33C179.775 125.065 179.775 125.751 179.33 125.751ZM186.434 126.642C184.617 126.526 182.861 125.95 181.03 125.977C180.585 125.977 180.585 125.292 181.03 125.292C182.861 125.264 184.617 125.84 186.434 125.957C186.873 125.984 186.873 126.677 186.434 126.642Z" fill="#3A4587"/>
</g>
<g id="Vector_9" style="mix-blend-mode:multiply" opacity="0.51">
<path d="M27.6456 139.191C26.4662 139.204 25.129 139.232 23.7096 139.259C20.9874 139.314 17.9223 139.369 15.0698 139.369C15.2001 139.451 15.3235 139.54 15.4332 139.636H25.0948C25.5405 139.636 25.5405 140.322 25.0948 140.322H15.9475C16.0161 140.494 16.0435 140.672 16.0298 140.864C18.608 140.85 21.3097 140.802 23.7371 140.754C25.1496 140.727 26.4867 140.699 27.6661 140.686C32.5689 140.624 33.1792 141.282 33.2478 141.426C33.2752 141.234 33.2683 140.987 33.1929 140.644C33.1038 140.24 32.6649 139.808 32.0478 139.41C30.9712 139.232 29.5381 139.163 27.6456 139.191ZM27.9747 140.322H26.3565C25.9107 140.322 25.9107 139.636 26.3565 139.636H27.9747C28.4204 139.636 28.4204 140.322 27.9747 140.322Z" fill="#3A4587"/>
</g>
<g id="Group_14">
<g id="Vector_10" style="mix-blend-mode:multiply" opacity="0.51">
<path d="M179.686 126.245C179.775 125.717 180.146 125.223 180.646 124.791C179.974 124.75 179.542 124.743 179.46 124.743L18.0046 124.242C17.312 124.194 8.54876 123.749 2.79572 131.902C2.54201 132.258 2.32944 132.608 2.13744 132.951C2.11687 133.417 2.13744 133.856 2.18544 134.261C2.46658 134.178 2.77515 134.562 2.52144 134.836C2.41858 134.946 2.3843 135.042 2.3843 135.193C2.3843 135.214 2.37744 135.22 2.37058 135.241C2.4803 135.68 2.60372 136.036 2.70658 136.29C2.59001 135.358 3.022 134.185 4.02313 132.766C9.38532 125.175 17.84 125.73 17.9223 125.737H17.9497L179.453 126.245C179.46 126.245 179.549 126.245 179.693 126.251L179.686 126.245ZM12.4915 126.114C10.503 126.8 8.40476 127.65 6.77279 129.022C5.32596 130.242 4.24255 131.874 3.05629 133.335C2.77515 133.678 2.29516 133.191 2.56944 132.848C3.88598 131.23 5.07911 129.413 6.77279 128.158C8.42533 126.93 10.3727 126.114 12.3064 125.449C12.7247 125.305 12.903 125.97 12.4915 126.114ZM14.0207 125.648C13.9315 125.648 13.8561 125.669 13.7875 125.73C13.4515 126.018 12.9647 125.532 13.3007 125.244C13.5132 125.058 13.7464 124.976 14.0207 124.962C14.4664 124.942 14.4595 125.628 14.0207 125.648ZM42.923 125.353H16.9418C16.496 125.353 16.496 124.668 16.9418 124.668H42.923C43.3687 124.668 43.3687 125.353 42.923 125.353ZM176.361 125.751C175.915 125.751 175.915 125.065 176.361 125.065H179.323C179.769 125.065 179.769 125.751 179.323 125.751H176.361Z" fill="#3A4587"/>
</g>
<g id="Vector_11" style="mix-blend-mode:multiply" opacity="0.51">
<path d="M203.487 138.032C203.487 138.032 202.218 136.688 199.88 134.308C199.846 134.542 199.531 134.74 199.284 134.535C197.809 133.301 196.575 131.73 195.128 130.455C194.943 130.647 194.696 130.811 194.395 130.942C199.551 136.036 202.369 139.033 202.397 139.06L203.487 138.032Z" fill="#3A4587"/>
</g>
</g>
</g>
</g>
<g id="Group_15">
<path id="Vector_12" d="M33.1998 148.283H28.3861L24.8479 151.732C24.4914 152.144 24.8548 154.331 25.4102 154.331H33.1998V148.283Z" fill="#3A4587"/>
<g id="Vector_13" style="mix-blend-mode:multiply" opacity="0.5">
<path d="M33.1998 148.283H28.3861L24.8479 151.732C24.4914 152.144 24.8548 154.331 25.4102 154.331H33.1998V148.283Z" fill="#3A4587"/>
</g>
<g id="Vector_14" style="mix-blend-mode:multiply" opacity="0.5">
<path d="M33.1998 153.728H27.0902C26.8364 153.728 26.6239 153.241 26.5073 152.685H33.1998V148.283H28.3861L24.8479 151.732C24.4914 152.144 24.8548 154.331 25.4102 154.331H33.1998V153.721V153.728Z" fill="#3A4587"/>
</g>
<g id="Vector_15" style="mix-blend-mode:multiply">
<path d="M33.1997 153.645C29.4558 153.632 26.4936 153.618 24.889 153.604C25.0193 154.016 25.1976 154.338 25.4102 154.338H33.1997V153.645Z" fill="#D8E7FD"/>
</g>
<path id="Vector_16" d="M33.1998 148.283H27.4673L24.8753 151.273C24.5188 151.684 24.6765 152.027 25.2319 152.027H33.1998V148.29V148.283Z" fill="white"/>
<path id="Vector_17" d="M33.1998 148.283H27.4673L24.8753 151.273C24.5188 151.684 24.6765 152.027 25.2319 152.027H33.1998V148.29V148.283Z" fill="#3A4587"/>
<g id="Vector_18" style="mix-blend-mode:multiply" opacity="0.5">
<path d="M33.1998 151.259H24.889L24.8753 151.273C24.5188 151.684 24.6765 152.027 25.2319 152.027H33.1998V151.259Z" fill="#3A4587"/>
</g>
<g id="Vector_19" style="mix-blend-mode:screen">
<path d="M27.4673 148.283L24.8753 151.273C24.5188 151.684 24.6765 152.027 25.2319 152.027H25.2388C25.273 151.952 25.3142 151.876 25.3896 151.787L28.4273 148.283H27.4673Z" fill="#3A4587"/>
</g>
</g>
</g>
<g id="Group_16">
<g id="Vector_20" style="mix-blend-mode:multiply" opacity="0.5">
<path d="M226.636 163.3L207.814 163.705C206.237 163.828 203.569 163.204 202.568 161.956L186.454 144.834C185.535 143.442 185.254 139.513 186.674 139.383L204.276 141.241C205.695 141.111 207.766 141.817 208.877 142.804L228.604 157.478C229.715 158.466 228.22 163.177 226.643 163.3H226.636Z" fill="#6399FB"/>
</g>
<path id="Vector_21" d="M227.041 161.668L208.218 162.073C206.641 162.196 203.974 161.572 202.973 160.324L186.859 143.202C185.94 141.81 185.659 137.881 187.078 137.751L204.68 139.609C206.1 139.479 208.17 140.185 209.281 141.172L229.009 155.846C230.12 156.834 228.625 161.545 227.048 161.668H227.041Z" fill="#D8E7FD"/>
<g id="Vector_22" style="mix-blend-mode:multiply">
<path d="M227.041 161.668L208.218 162.073C206.641 162.196 203.974 161.572 202.973 160.324L186.859 143.202C185.94 141.81 185.659 137.881 187.078 137.751L204.68 139.609C206.1 139.479 208.17 140.185 209.281 141.172L229.009 155.846C230.12 156.834 228.625 161.545 227.048 161.668H227.041Z" fill="#D8E7FD"/>
</g>
<g id="Vector_23" style="mix-blend-mode:multiply">
<path d="M229.002 155.846L209.274 141.172C208.164 140.185 206.093 139.479 204.673 139.609L193.092 138.388C194.642 140.274 196.486 141.892 198.221 143.634C199.064 144.484 199.949 145.369 200.689 146.343C202.212 146.205 203.727 147.09 203.494 149.024C203.274 150.854 202.897 152.267 201.684 153.693C201.649 153.734 201.608 153.769 201.567 153.81C202.376 155.229 201.814 157.053 200.689 157.89L202.98 160.324C203.981 161.572 206.648 162.196 208.225 162.073L227.048 161.668C228.625 161.545 230.12 156.841 229.009 155.846H229.002Z" fill="#D8E7FD"/>
</g>
<g id="Vector_24" style="mix-blend-mode:multiply">
<path d="M229.002 155.846L226.911 154.29C226.41 154.928 225.937 155.654 225.505 156.47C223.043 161.106 210.104 161.613 205.654 161.785C206.566 162.025 207.505 162.127 208.218 162.073L227.041 161.668C228.618 161.545 230.113 156.841 229.002 155.846Z" fill="#D8E7FD"/>
</g>
<g id="Vector_25" style="mix-blend-mode:multiply">
<path d="M189.368 137.998L187.071 137.758C185.652 137.888 185.933 141.817 186.859 143.209L188.223 144.656C187.805 142.763 187.339 139.204 189.368 137.998Z" fill="#D8E7FD"/>
</g>
<g id="Vector_26" style="mix-blend-mode:multiply">
<path d="M228.947 155.805L209.274 141.172C208.164 140.185 206.093 139.479 204.673 139.609L187.25 137.764C186.338 138.484 186.255 139.479 186.955 140.247L203.467 157.712C204.406 158.747 206.038 159.241 207.622 159.199L226.623 159.172C227.857 159.138 229.413 158.15 228.954 155.805H228.947Z" fill="#D8E7FD"/>
</g>
<path id="Vector_27" d="M226.705 158.198L207.704 158.226C206.127 158.267 204.495 157.773 203.549 156.738L187.037 139.273C186.098 138.238 186.564 136.804 188.559 136.167C191.158 135.33 195.101 134.247 198.817 134.082C203.501 133.876 206.511 134.425 209.768 135.502C213.108 136.606 220.719 139.499 228.118 152.528C230.408 156.56 228.282 158.15 226.698 158.191L226.705 158.198Z" fill="#D8E7FD"/>
<path id="Vector_28" opacity="0.5" d="M204.701 156.95L188.189 139.486C187.25 138.45 187.716 137.017 189.711 136.379C192.31 135.543 196.253 134.459 199.969 134.295C202.5 134.185 204.536 134.295 206.388 134.59C204.221 134.144 201.883 133.952 198.824 134.089C195.108 134.254 191.165 135.337 188.566 136.174C186.578 136.811 186.105 138.244 187.044 139.28L203.556 156.745C204.33 157.595 205.572 158.075 206.868 158.198C206.01 157.958 205.236 157.547 204.694 156.957L204.701 156.95Z" fill="white"/>
<path id="Vector_29" d="M226.294 156.21L207.944 156.237C206.415 156.278 204.845 155.798 203.933 154.804L187.99 137.936C187.778 137.703 187.641 137.449 187.579 137.182C187.167 137.799 187.229 138.505 187.757 139.088L203.7 155.956C204.605 156.957 206.182 157.43 207.711 157.389L226.06 157.362C227.11 157.334 228.412 156.594 228.399 154.866C227.98 155.778 227.068 156.189 226.294 156.21Z" fill="white"/>
<g id="Vector_30" style="mix-blend-mode:multiply">
<path d="M209.775 135.508C209.665 135.474 209.562 135.44 209.453 135.406C212.922 137.374 218.429 141.399 219.807 147.323C221.446 154.372 206.58 155.229 197.679 150.525L203.556 156.745C204.495 157.78 206.127 158.274 207.711 158.233L226.712 158.205C228.289 158.164 230.415 156.573 228.131 152.541C220.732 139.506 213.121 136.619 209.782 135.515L209.775 135.508Z" fill="#D8E7FD"/>
</g>
<g id="Vector_31" style="mix-blend-mode:multiply">
<path d="M226.835 151.465C220.636 141.172 214.259 138.882 211.462 138.011C211.373 137.984 211.283 137.956 211.187 137.929C211.51 138.1 211.859 138.299 212.216 138.512C215.48 139.897 220.492 143.031 225.395 151.17C227.308 154.352 225.532 155.613 224.209 155.648L208.294 155.668C208.088 155.668 207.876 155.668 207.67 155.648C208.308 155.874 209.028 155.984 209.734 155.963L225.649 155.942C226.972 155.908 228.755 154.653 226.835 151.465Z" fill="#D8E7FD"/>
</g>
<g id="Vector_32" style="mix-blend-mode:multiply">
<path d="M218.127 140.096C217.709 139.753 217.297 139.438 216.893 139.143C214.177 138.265 210.886 137.593 206.984 137.422C195.382 136.921 191.535 141.474 190.575 143.003L190.939 143.387C191.714 142.132 195.403 137.415 206.97 137.922C211.517 138.121 215.226 139.012 218.141 140.103L218.127 140.096Z" fill="#D8E7FD"/>
</g>
<g id="Vector_33" style="mix-blend-mode:multiply">
<path d="M207.108 137.634C211.009 137.806 214.301 138.484 217.016 139.355C217.297 139.561 217.578 139.78 217.866 140.007C217.949 140.034 218.038 140.068 218.12 140.096C217.702 139.753 217.29 139.438 216.886 139.143C214.17 138.265 210.879 137.593 206.977 137.422C195.375 136.921 191.528 141.474 190.568 143.003L190.726 143.175C191.734 141.604 195.615 137.14 207.108 137.641V137.634Z" fill="#D8E7FD"/>
</g>
<path id="Vector_34" d="M189.197 136.496C189.197 136.496 188.141 137.113 189.382 138.731C190.623 140.343 191.679 141.028 191.679 141.028C191.679 141.028 197.391 134.891 212.216 137.751C212.216 137.751 204.708 135.824 199.064 136.873C193.647 137.881 191.309 139.102 189.204 136.496H189.197Z" fill="white"/>
<path id="Vector_35" d="M202.753 138.368C202.753 138.368 196.465 138.478 193.016 142.263C193.016 142.263 203.466 153.728 205.366 154.571C205.366 154.571 193.874 143.627 196.157 141.419C198.529 139.122 202.747 138.375 202.747 138.375L202.753 138.368Z" fill="white"/>
<g id="Vector_36" style="mix-blend-mode:multiply">
<path d="M198.824 134.082C198.509 134.096 198.187 134.117 197.864 134.144C198.269 134.247 199.085 134.521 200.011 135.255C201.334 136.297 201.937 136.77 201.937 136.77C201.937 136.77 204.022 136.297 205.88 136.674C205.88 136.674 204.612 135.207 202.843 134.103C201.629 134.021 200.312 134.014 198.817 134.075L198.824 134.082Z" fill="#D8E7FD"/>
</g>
<path id="Vector_37" d="M198.084 134.075C198.31 134.075 199.942 134.137 202.095 136.194C202.095 136.194 204.042 135.858 204.934 136.194C204.934 136.194 205.023 132.642 202.219 132.107C197.933 131.285 198.084 134.075 198.084 134.075Z" fill="#3A4587"/>
<g id="Vector_38" style="mix-blend-mode:multiply" opacity="0.5">
<path d="M202.17 136.18C202.109 135.268 201.732 132.882 199.469 132.45C199.304 132.416 199.167 132.402 199.016 132.382C198.036 132.999 198.091 134.075 198.091 134.075C198.317 134.075 199.949 134.137 202.102 136.194C202.102 136.194 202.129 136.194 202.177 136.18H202.17Z" fill="#3A4587"/>
</g>
<g id="Vector_39" style="mix-blend-mode:screen">
<path d="M199.661 132.354C199.496 132.32 199.359 132.306 199.208 132.286C199.16 132.32 199.119 132.354 199.071 132.389C199.201 132.409 199.325 132.423 199.469 132.45C201.581 132.855 202.047 134.953 202.157 135.975C202.205 136.016 202.246 136.057 202.294 136.098C202.294 136.098 202.321 136.098 202.369 136.084C202.308 135.172 201.931 132.786 199.668 132.354H199.661Z" fill="#3A4587"/>
</g>
<g id="Vector_40" style="mix-blend-mode:multiply" opacity="0.5">
<path d="M202.219 132.107C202.081 132.08 201.965 132.066 201.835 132.053C202.712 132.306 203.844 133.115 203.899 133.815C204.001 135.248 202.568 134.747 201.499 133.719C200.614 132.875 198.955 133.17 198.097 133.87C198.084 133.993 198.084 134.075 198.084 134.075C198.31 134.075 199.942 134.137 202.095 136.194C202.095 136.194 204.042 135.858 204.934 136.194C204.934 136.194 205.023 132.642 202.219 132.107Z" fill="#3A4587"/>
</g>
<g id="Vector_41" style="mix-blend-mode:screen">
<path d="M202.301 134.59C202.301 134.59 201.745 132.251 199.805 132.238C199.805 132.238 201.375 131.902 202.315 132.347L201.108 132.382C201.108 132.382 202.171 132.779 202.301 134.59Z" fill="#3A4587"/>
</g>
</g>
</g>
<g id="Group_17">
<g id="Group_18">
<g id="Vector_42" style="mix-blend-mode:multiply" opacity="0.5">
<path d="M178.157 136.866H44.9801C44.1847 136.866 42.9779 137.483 42.2922 138.238L20.4937 162.196C19.808 162.95 20.1166 163.567 21.1794 163.567H200.017C201.08 163.567 201.437 162.95 200.806 162.196L180.749 138.238C180.118 137.483 178.953 136.866 178.157 136.866Z" fill="#6399FB"/>
</g>
<g id="Group_19">
<g id="Group_20">
<path id="Vector_43" d="M173.467 135.138H48.7172C47.9766 135.138 46.8384 135.748 46.2007 136.489L25.4102 156.731C24.7656 157.472 25.4307 161.394 26.425 161.394H193.942C194.936 161.394 195.142 157.321 194.552 156.58L175.894 136.489C175.305 135.748 174.214 135.138 173.467 135.138Z" fill="#D8E7FD"/>
<g id="Vector_44" style="mix-blend-mode:multiply">
<path d="M194.552 156.58L191.364 153.152L175.888 136.489C175.792 136.372 175.682 136.263 175.572 136.153C175.545 136.126 175.517 136.105 175.49 136.078C175.38 135.982 175.27 135.892 175.154 135.81C175.14 135.803 175.133 135.796 175.12 135.783C174.832 135.577 174.523 135.412 174.221 135.303C173.954 135.207 173.693 135.145 173.474 135.145H48.7172C47.9766 135.145 46.8384 135.755 46.2007 136.496L25.4102 156.738C24.7656 157.478 25.4307 161.401 26.425 161.401H193.942C194.936 161.401 195.142 157.328 194.552 156.587V156.58ZM191.796 160.303H29.4284C28.9758 160.303 28.5918 159.433 28.3793 158.438H192.639C192.523 159.439 192.242 160.303 191.796 160.303Z" fill="#D8E7FD"/>
</g>
<g id="Vector_45" style="mix-blend-mode:multiply">
<path d="M117.63 159.556C98.5952 160.468 38.2465 160.159 25.4856 160.084C25.7119 160.825 26.041 161.394 26.425 161.394H193.942C194.936 161.394 195.142 157.321 194.552 156.58L190.706 152.438L159.266 152.562C159.266 152.562 138.962 158.534 117.63 159.556Z" fill="#D8E7FD"/>
</g>
<g id="Group_21">
<path id="Vector_46" d="M171.115 41.4576H50.4314C48.5644 41.4576 47.0509 42.9711 47.0509 44.8381V128.117C47.0509 129.984 48.5644 131.497 50.4314 131.497H171.115C172.982 131.497 174.496 129.984 174.496 128.117V44.8381C174.496 42.9711 172.982 41.4576 171.115 41.4576Z" fill="#D8E7FD"/>
<g id="Group_22">
<g id="Vector_47" style="mix-blend-mode:screen">
<path d="M115.169 41.4576H103.587C97.1895 57.3521 68.8631 130.112 68.8631 130.112L69.2814 131.497H80.2321L115.169 41.4576Z" fill="#D8E7FD"/>
</g>
<g id="Vector_48" style="mix-blend-mode:screen">
<path d="M68.7877 41.4576C63.5215 54.7739 52.3583 83.594 47.0509 97.308V111.66L77.6881 41.4576H68.7877Z" fill="#D8E7FD"/>
</g>
<g id="Vector_49" style="mix-blend-mode:screen">
<path d="M174.496 93.0224C169.702 105.303 163.682 120.814 159.547 131.504H166.061L174.502 112.167V93.0224H174.496Z" fill="#D8E7FD"/>
</g>
<g id="Vector_50" style="mix-blend-mode:screen">
<path d="M47.0509 70.6136V84.5334L63.8232 41.4576H58.0907C55.0942 49.2471 50.4726 61.5075 47.0509 70.6136Z" fill="#D8E7FD"/>
</g>
<g id="Vector_51" style="mix-blend-mode:screen">
<path d="M174.496 50.1591V43.9604C174.496 42.589 173.371 41.4644 172 41.4644H166.343C163.367 48.6094 137.625 115.445 131.44 131.504H142.933L174.496 50.166V50.1591Z" fill="#D8E7FD"/>
</g>
<g id="Vector_52" style="mix-blend-mode:screen">
<path d="M174.496 68.1794V59.2721C165.506 82.4008 150.949 120.204 146.601 131.497H149.55L174.496 68.1794Z" fill="#D8E7FD"/>
</g>
<g id="Vector_53" style="mix-blend-mode:screen">
<path d="M130.357 41.4576H118.796C113.146 55.6173 87.9256 121.136 83.9348 131.497H95.4204L130.357 41.4576Z" fill="#D8E7FD"/>
</g>
<g id="Vector_54" style="mix-blend-mode:screen">
<path d="M137.495 41.4576H133.943C128.128 56.0562 102.833 121.76 99.0889 131.497H102.017L137.495 41.4576Z" fill="#D8E7FD"/>
</g>
</g>
<g id="Vector_55" style="mix-blend-mode:screen">
<path d="M47.9903 129.824V44.7832C47.9903 43.4118 49.1149 42.2872 50.4863 42.2872H172.939C173.35 42.2872 173.734 42.397 174.077 42.5752C173.625 41.9032 172.864 41.4644 172 41.4644H49.5469C48.1755 41.4644 47.0509 42.589 47.0509 43.9604V129.001C47.0509 129.961 47.6064 130.798 48.4086 131.209C48.1412 130.811 47.9835 130.338 47.9835 129.824H47.9903Z" fill="#D8E7FD"/>
</g>
<g id="Vector_56" style="mix-blend-mode:multiply">
<path d="M172 129.275H49.5469C48.1755 129.275 47.0509 128.151 47.0509 126.779V129.001C47.0509 130.373 48.1755 131.497 49.5469 131.497H172C173.371 131.497 174.496 130.373 174.496 129.001V126.779C174.496 128.151 173.371 129.275 172 129.275Z" fill="#D8E7FD"/>
</g>
<g id="Vector_57" style="mix-blend-mode:multiply">
<path d="M172 41.4576H152.526C150.77 52.6894 144.517 82.9905 126.688 96.7389C107.941 111.193 61.1832 117.303 47.0441 118.825V129.001C47.0441 130.373 48.1686 131.497 49.54 131.497H172C173.371 131.497 174.496 130.373 174.496 129.001V43.9604C174.496 42.589 173.371 41.4644 172 41.4644V41.4576Z" fill="#D8E7FD"/>
</g>
<g id="Vector_58" style="mix-blend-mode:multiply">
<path d="M167.426 45.5101H54.1205C52.3974 45.5101 51.0006 46.9069 51.0006 48.63V124.332C51.0006 126.055 52.3974 127.451 54.1205 127.451H167.426C169.149 127.451 170.546 126.055 170.546 124.332V48.63C170.546 46.9069 169.149 45.5101 167.426 45.5101Z" fill="#D8E7FD"/>
</g>
<path id="Vector_59" d="M55.0736 46.1958H166.473C168.166 46.1958 169.538 47.5672 169.538 49.2608V123.694C169.538 125.388 168.166 126.759 166.473 126.759H55.0736C53.38 126.759 52.0085 125.388 52.0085 123.694V49.2608C52.0085 47.5672 53.38 46.1958 55.0736 46.1958Z" fill="#3A4587"/>
<g id="Vector_60" style="mix-blend-mode:multiply" opacity="0.4">
<path d="M168.166 46.3809C168.18 46.4769 168.194 46.5729 168.194 46.6689V122.7C168.194 123.948 167.172 124.969 165.924 124.969H52.9274C52.612 124.969 52.3103 124.901 52.036 124.784C52.18 125.895 53.1262 126.766 54.2782 126.766H167.275C168.523 126.766 169.545 125.744 169.545 124.496V48.4654C169.545 47.5329 168.976 46.7306 168.166 46.3809Z" fill="#3A4587"/>
</g>
</g>
<path id="Vector_61" d="M173.152 130.997H48.4018C47.6612 130.997 46.523 131.607 45.8852 132.347L25.465 155.901C24.8205 156.642 25.1085 157.252 26.1096 157.252H193.627C194.621 157.252 194.957 156.642 194.36 155.901L175.572 132.347C174.982 131.607 173.892 130.997 173.145 130.997H173.152Z" fill="white"/>
<g id="Group_23" opacity="0.4">
<path id="Vector_62" d="M97.1483 130.997H90.4147L79.3338 157.252H89.2011L97.1483 130.997Z" fill="#D8E7FD"/>
<path id="Vector_63" d="M82.8583 130.997H81.1646L65.4415 157.252H67.7112L82.8583 130.997Z" fill="#D8E7FD"/>
<path id="Vector_64" d="M37.17 157.252H52.0703L69.1991 130.997H56.8359C52.6463 136.804 41.915 150.992 37.17 157.252Z" fill="#D8E7FD"/>
<path id="Vector_65" d="M78.2573 130.997H75.0756L59.3524 157.252H63.1101L78.2573 130.997Z" fill="#D8E7FD"/>
<path id="Vector_66" d="M130.823 130.997H123.157L133.724 157.252H143.673L130.823 130.997Z" fill="#D8E7FD"/>
<path id="Vector_67" d="M159.259 130.997H146.869L163.997 157.252H178.939C174.427 151.3 163.703 137.12 159.259 130.997Z" fill="#D8E7FD"/>
<path id="Vector_68" d="M140.985 130.997H137.79L152.937 157.252H156.708L140.985 130.997Z" fill="#D8E7FD"/>
<path id="Vector_69" d="M134.889 130.997H133.189L148.336 157.252H150.613L134.889 130.997Z" fill="#D8E7FD"/>
</g>
<g id="Vector_70" style="mix-blend-mode:multiply">
<path d="M194.36 155.901L175.572 132.347C174.982 131.607 173.892 130.997 173.145 130.997H172.329L191.096 154.523C191.686 155.264 191.357 155.874 190.363 155.874H25.4856L25.465 155.901C24.8205 156.642 25.1085 157.252 26.1096 157.252H193.627C194.621 157.252 194.957 156.642 194.36 155.901Z" fill="#D8E7FD"/>
</g>
<path id="Vector_71" d="M26.1165 157.252C26.1713 157.115 26.2536 156.978 26.3839 156.827L46.8041 133.273C47.4486 132.533 48.5801 131.922 49.3206 131.922H174.07C174.564 131.922 175.216 132.197 175.771 132.601L175.572 132.347C174.982 131.607 173.892 130.997 173.145 130.997H48.4018C47.6612 130.997 46.523 131.607 45.8852 132.347L25.465 155.901C24.8205 156.642 25.1085 157.252 26.1096 157.252H26.1233H26.1165Z" fill="#D8E7FD"/>
<path id="Vector_72" d="M176.107 145.389C176.628 144.436 173.865 141.296 173.049 140.274C171.081 137.806 169.106 135.33 167.138 132.862C166.624 132.217 165.671 131.689 165.026 131.689H56.301C55.6565 131.689 54.6691 132.217 54.1068 132.862C52.5845 134.617 51.0623 136.372 49.54 138.128C48.3058 139.554 47.0715 140.974 45.8372 142.4C45.3367 142.976 43.3344 144.779 43.6293 145.623C43.8898 146.37 45.1995 146.116 45.8921 146.116C47.4555 146.123 49.0189 146.116 50.5754 146.116H170.642C171.958 146.116 175.634 146.247 176.059 145.479C176.073 145.451 176.086 145.417 176.1 145.389H176.107Z" fill="#D8E7FD"/>
<g id="Vector_73" style="mix-blend-mode:multiply">
<path d="M171.053 144.265H50.9869C49.4235 144.265 47.8601 144.272 46.3035 144.265C45.7413 144.265 44.7813 144.423 44.2944 144.08C43.835 144.656 43.4922 145.232 43.6293 145.616C43.8899 146.363 45.1996 146.109 45.8921 146.109C47.4555 146.116 49.0189 146.109 50.5755 146.109H170.642C171.958 146.109 175.634 146.24 176.059 145.472C176.073 145.444 176.086 145.41 176.1 145.383C176.258 145.088 176.1 144.58 175.792 143.997C174.564 144.333 172.082 144.258 171.046 144.258L171.053 144.265Z" fill="#D8E7FD"/>
</g>
<g id="Vector_74" style="mix-blend-mode:multiply">
<path d="M176.052 144.567C176.052 144.567 176.038 144.621 176.025 144.649C176.011 144.676 175.997 144.711 175.984 144.738C175.558 145.506 171.883 145.376 170.566 145.376H50.4932C48.9298 145.376 47.3664 145.383 45.8098 145.376C45.1927 145.376 44.0956 145.568 43.6773 145.088C43.6018 145.287 43.5813 145.472 43.6293 145.629C43.8898 146.377 45.1995 146.123 45.8921 146.123C47.4555 146.13 49.0189 146.123 50.5754 146.123H170.642C171.958 146.123 175.634 146.253 176.059 145.485C176.073 145.458 176.086 145.424 176.1 145.396C176.21 145.197 176.176 144.909 176.045 144.567H176.052Z" fill="#D8E7FD"/>
</g>
<path id="Vector_75" d="M132.805 155.188C132.983 154.653 132.016 152.898 131.735 152.322C131.043 150.937 130.357 149.559 129.664 148.173C129.486 147.81 129.15 147.515 128.924 147.515H90.881C90.6548 147.515 90.3119 147.81 90.113 148.173C89.5782 149.154 89.0502 150.141 88.5154 151.122C88.0834 151.917 87.6514 152.713 87.2194 153.515C87.048 153.837 86.3417 154.845 86.4445 155.318C86.5337 155.737 86.9931 155.593 87.2331 155.6C87.7817 155.6 88.3234 155.6 88.8719 155.6H130.885C131.344 155.6 132.633 155.668 132.784 155.243C132.784 155.229 132.791 155.209 132.798 155.195L132.805 155.188Z" fill="#D8E7FD"/>
<g id="Vector_76" style="mix-blend-mode:multiply">
<path d="M131.735 152.329C131.043 150.944 130.357 149.565 129.664 148.18C129.486 147.817 129.15 147.522 128.924 147.522H90.881C90.6548 147.522 90.3119 147.817 90.113 148.18C89.5782 149.161 89.0502 150.141 88.5154 151.129C88.0834 151.924 87.6514 152.72 87.2194 153.522C87.048 153.844 86.3417 154.852 86.4445 155.325C86.4445 155.346 86.4583 155.36 86.4651 155.38C86.6571 154.914 87.0068 154.386 87.1234 154.166C87.5554 153.371 87.9874 152.576 88.4194 151.773C88.9542 150.793 89.4822 149.812 90.017 148.825C90.2159 148.461 90.5588 148.167 90.785 148.167H128.828C129.054 148.167 129.39 148.461 129.568 148.825C130.261 150.21 130.947 151.588 131.639 152.973C131.865 153.426 132.517 154.626 132.688 155.366C132.736 155.332 132.771 155.284 132.784 155.236C132.784 155.222 132.791 155.202 132.798 155.188C132.976 154.653 132.009 152.898 131.728 152.322L131.735 152.329Z" fill="#D8E7FD"/>
</g>
<g id="Vector_77" style="mix-blend-mode:multiply">
<path d="M51.1514 144.265H51.7823L53.7708 141.659H59.901L57.9125 144.265H58.5433L60.5318 141.659H66.662L64.6735 144.265H65.3043L67.2929 141.659H73.423L71.4345 144.265H72.0653L74.0539 141.659H80.1841L78.1955 144.265H78.8264L80.8149 141.659H86.9451L84.9565 144.265H85.5874L87.5759 141.659H121.594L123.582 144.265H124.11L124.172 144.217L122.218 141.659H128.348L130.336 144.265H130.864L130.926 144.217L128.972 141.659H135.102L137.09 144.265H137.618L137.68 144.217L135.726 141.659H141.856L143.845 144.265H144.373L144.434 144.217L142.48 141.659H148.61L150.599 144.265H151.127L151.189 144.217L149.234 141.659H155.364L157.353 144.265H157.881L157.943 144.217L155.988 141.659H162.907L164.896 144.265H165.527L163.538 141.659H169.668L171.664 144.265C171.856 144.265 172.068 144.265 172.294 144.265L170.299 141.652H174.132C173.981 141.46 173.837 141.282 173.693 141.111H168.297L166.349 138.56H171.65C171.506 138.382 171.362 138.196 171.218 138.018H169.894L168.324 135.961H169.579C169.435 135.783 169.291 135.598 169.147 135.419H166.226L164.841 133.609H167.7C167.556 133.431 167.412 133.246 167.268 133.067H162.53L161.46 131.669H160.829L161.899 133.067H155.769L154.699 131.669H154.068L155.138 133.067H149.008L147.938 131.669H147.307L148.377 133.067H142.247L141.177 131.669H140.546L141.616 133.067H135.486L134.416 131.669H133.785L134.855 133.067H128.725L127.655 131.669H127.024L128.094 133.067H120.359L119.482 131.669H118.892L119.77 133.067H112.302L111.795 131.669H111.26L111.767 133.067H108.675V133.013H108.174V133.061H105.658L106.261 131.662H105.72L105.116 133.061H98.41L99.2877 131.662H98.698L97.882 132.965L98.0397 133.061H91.985L93.0547 131.662H92.4238L91.409 132.992L91.4981 133.061H85.224L86.2937 131.662H85.6628L84.648 132.992L84.7371 133.061H78.4629L79.5326 131.662H78.9018L77.887 132.992L77.9761 133.061H71.7019L72.7716 131.662H72.1408L71.1259 132.992L71.2151 133.061H64.9409L66.0106 131.662H65.3797L64.3649 132.992L64.454 133.061H58.1799L59.2496 131.662H58.6187L57.6039 132.992L57.693 133.061H53.8737C53.716 133.239 53.5582 133.424 53.4005 133.602H61.1558L59.7707 135.412H51.8303C51.6726 135.591 51.5148 135.776 51.3571 135.954H55.8553L54.2851 138.011H49.5743L49.492 138.107C49.3617 138.258 49.2383 138.402 49.108 138.553H54.1822L54.3811 138.704L54.4977 138.553H58.5776L56.6302 141.104H46.9001C46.7424 141.282 46.5847 141.467 46.4269 141.646H53.0988L51.1103 144.251L51.1514 144.265ZM64.0632 141.118L66.0106 138.567H67.7454L67.9443 138.718L68.0608 138.567H72.1408L70.1934 141.118H64.0632ZM96.2569 138.025H88.7622L90.3325 135.968H97.546L96.2569 138.025ZM98.1357 135.968H104.451L103.567 138.025H96.8466L98.1357 135.968ZM88.1313 138.025H82.0012L83.5714 135.968H89.7016L88.1313 138.025ZM81.3703 138.025H75.2401L76.8104 135.968H82.9406L81.3703 138.025ZM74.6093 138.025H68.4791L70.0494 135.968H76.1796L74.6093 138.025ZM67.8483 138.025H61.7181L63.2884 135.968H69.4185L67.8483 138.025ZM70.8174 141.118L72.7648 138.567H74.4996L74.6984 138.718L74.815 138.567H78.8949L76.9475 141.118H70.8174ZM77.5784 141.118L79.5258 138.567H81.2606L81.4595 138.718L81.576 138.567H85.656L83.7086 141.118H77.5784ZM84.3394 141.118L86.2868 138.567H88.0216L88.2205 138.718L88.3371 138.567H92.417L90.4696 141.118H84.3394ZM91.1004 141.118L93.0478 138.567H99.4043L97.8066 141.118H91.0936H91.1004ZM98.4032 141.118L99.946 138.663L99.7951 138.567H108.394V141.118H98.4032ZM108.901 141.118V138.567H117.562L117.411 138.663L118.954 141.118H108.901ZM155.81 138.025H149.68L148.11 135.968H154.24L155.81 138.025ZM154.871 135.968H161.001L162.571 138.025H156.441L154.871 135.968ZM149.049 138.025H142.919L141.349 135.968H145.614L145.785 136.187L146.073 135.968H147.479L149.049 138.025ZM142.288 138.025H136.158L134.588 135.968H140.718L142.288 138.025ZM135.527 138.025H129.397L127.827 135.968H133.957L135.527 138.025ZM128.766 138.025H121.525L120.236 135.968H127.196L128.766 138.025ZM120.935 138.025H113.351L112.604 135.968H119.639L120.928 138.025H120.935ZM121.806 141.118L121.765 141.07L121.696 141.118H119.543L117.939 138.567H121.271L121.285 138.58L121.312 138.567H124.144L126.092 141.118H121.799H121.806ZM128.567 141.118L128.526 141.07L128.457 141.118H126.723L124.775 138.567H129.177L129.225 138.635L129.315 138.567H130.905L132.853 141.118H128.56H128.567ZM135.328 141.118L135.287 141.07L135.219 141.118H133.484L131.536 138.567H135.939L135.987 138.635L136.076 138.567H137.666L139.614 141.118H135.321H135.328ZM142.089 141.118L142.048 141.07L141.98 141.118H140.245L138.297 138.567H142.7L142.748 138.635L142.837 138.567H144.427L146.375 141.118H142.082H142.089ZM148.85 141.118L148.809 141.07L148.741 141.118H147.006L145.058 138.567H149.461L149.509 138.635L149.598 138.567H151.189L153.136 141.118H148.843H148.85ZM155.611 141.118L155.57 141.07L155.502 141.118H153.767L151.819 138.567H156.222L156.27 138.635L156.359 138.567H157.95L159.897 141.118H155.604H155.611ZM167.7 141.118H160.528L158.58 138.567H162.983L163.031 138.635L163.12 138.567H165.753L167.7 141.118ZM167.728 135.975L169.298 138.032H163.195L161.625 135.975H167.728ZM164.251 133.623L165.636 135.433H159.355L157.97 133.623H164.251ZM157.339 133.623L158.724 135.433H152.594L151.209 133.623H157.339ZM150.578 133.623L151.963 135.433H145.833L144.448 133.623H150.578ZM143.817 133.623L145.202 135.433H139.072L137.687 133.623H143.817ZM137.056 133.623L138.441 135.433H132.311L130.926 133.623H137.056ZM130.295 133.623L131.68 135.433H125.55L124.165 133.623H130.295ZM123.534 133.623L124.919 135.433H115.978L114.785 133.623H123.534ZM114.188 133.623L115.381 135.433H108.73V133.623H114.188ZM112.083 135.975L112.83 138.032H104.115L105 135.975H112.083ZM108.222 133.623V135.433H104.835L104.712 135.378L104.691 135.433H101.509L102.641 133.623H108.222ZM102.051 133.623L100.92 135.433H98.0192L97.9232 135.371L97.8889 135.433H94.2478L95.6329 133.623H102.051ZM95.0021 133.623L93.617 135.433H87.4868L88.8719 133.623H95.0021ZM88.2411 133.623L86.8559 135.433H80.7258L82.1109 133.623H88.2411ZM81.48 133.623L80.0949 135.433H73.9647L75.3499 133.623H81.48ZM74.719 133.623L73.3339 135.433H67.2037L68.5888 133.623H74.719ZM61.8278 133.623H67.958L66.5729 135.433H60.4427L61.8278 133.623ZM54.9639 138.025L56.5342 135.968H62.6644L61.0941 138.025H54.9639ZM59.2564 138.567H60.9913L61.1901 138.718L61.3067 138.567H65.3866L63.4392 141.118H57.309L59.2564 138.567Z" fill="#D8E7FD"/>
</g>
<g id="Vector_78" style="mix-blend-mode:multiply">
<path d="M51.4326 144.656H52.0634L54.052 142.05H60.1821L58.1936 144.656H58.8245L60.813 142.05H66.9432L64.9546 144.656H65.5855L67.574 142.05H73.7042L71.7157 144.656H72.3465L74.335 142.05H80.4652L78.4767 144.656H79.1075L81.0961 142.05H87.2262L85.2377 144.656H85.8686L87.8571 142.05H121.875L123.863 144.656H124.391L124.453 144.608L122.499 142.05H128.629L130.617 144.656H131.145L131.207 144.608L129.253 142.05H135.383L137.372 144.656H137.9L137.961 144.608L136.007 142.05H142.137L144.126 144.656H144.654L144.716 144.608L142.761 142.05H148.891L150.88 144.656H151.408L151.47 144.608L149.515 142.05H155.646L157.634 144.656H158.162L158.224 144.608L156.27 142.05H163.188L165.177 144.656H165.808L163.819 142.05H169.949L171.945 144.656C172.137 144.656 172.349 144.656 172.576 144.656L170.58 142.043H174.413C174.262 141.851 174.118 141.673 173.974 141.501H168.578L166.631 138.951H171.931C171.787 138.772 171.643 138.587 171.499 138.409H170.176L168.605 136.352H169.86C169.716 136.174 169.572 135.988 169.428 135.81H166.507L165.122 134H167.981C167.837 133.822 167.693 133.636 167.549 133.458H162.811L161.742 132.059H161.111L162.18 133.458H156.05L154.98 132.059H154.35L155.419 133.458H149.289L148.219 132.059H147.589L148.658 133.458H142.528L141.458 132.059H140.828L141.897 133.458H135.767L134.697 132.059H134.067L135.136 133.458H129.006L127.936 132.059H127.306L128.375 133.458H120.641L119.763 132.059H119.173L120.051 133.458H112.584L112.076 132.059H111.541L112.049 133.458H108.956V133.403H108.456V133.451H105.939L106.542 132.053H106.001L105.397 133.451H98.6912L99.5689 132.053H98.9792L98.1632 133.355L98.3209 133.451H92.2662L93.3359 132.053H92.705L91.6902 133.383L91.7793 133.451H85.5051L86.5748 132.053H85.944L84.9291 133.383L85.0183 133.451H78.7441L79.8138 132.053H79.183L78.1681 133.383L78.2573 133.451H71.9831L73.0528 132.053H72.4219L71.4071 133.383L71.4962 133.451H65.2221L66.2918 132.053H65.6609L64.6461 133.383L64.7352 133.451H58.461L59.5307 132.053H58.8999L57.885 133.383L57.9742 133.451H54.1548C53.9971 133.63 53.8394 133.815 53.6817 133.993H61.437L60.0519 135.803H52.1114C51.9537 135.982 51.796 136.167 51.6383 136.345H56.1365L54.5662 138.402H49.8555C49.8555 138.402 49.8006 138.471 49.7732 138.498C49.6429 138.649 49.5195 138.793 49.3892 138.944H54.4634L54.6622 139.095L54.7788 138.944H58.8587L56.9113 141.495H47.1812C47.0235 141.673 46.8658 141.858 46.7081 142.036H53.38L51.3914 144.642L51.4326 144.656ZM64.3444 141.508L66.2918 138.958H68.0266L68.2254 139.108L68.342 138.958H72.4219L70.4745 141.508H64.3444ZM96.5381 138.416H89.0434L90.6136 136.359H97.8272L96.5381 138.416ZM98.4169 136.359H104.732L103.848 138.416H97.1278L98.4169 136.359ZM88.4125 138.416H82.2823L83.8526 136.359H89.9828L88.4125 138.416ZM81.6515 138.416H75.5213L77.0916 136.359H83.2217L81.6515 138.416ZM74.8905 138.416H68.7603L70.3305 136.359H76.4607L74.8905 138.416ZM68.1294 138.416H61.9993L63.5695 136.359H69.6997L68.1294 138.416ZM71.0985 141.508L73.0459 138.958H74.7807L74.9796 139.108L75.0962 138.958H79.1761L77.2287 141.508H71.0985ZM77.8596 141.508L79.8069 138.958H81.5418L81.7406 139.108L81.8572 138.958H85.9371L83.9897 141.508H77.8596ZM84.6206 141.508L86.568 138.958H88.3028L88.5017 139.108L88.6182 138.958H92.6981L90.7508 141.508H84.6206ZM91.3816 141.508L93.329 138.958H99.6855L98.0878 141.508H91.3747H91.3816ZM98.6843 141.508L100.227 139.054L100.076 138.958H108.675V141.508H98.6843ZM109.182 141.508V138.958H117.843L117.692 139.054L119.235 141.508H109.182ZM156.091 138.416H149.961L148.391 136.359H154.521L156.091 138.416ZM155.152 136.359H161.282L162.852 138.416H156.722L155.152 136.359ZM149.33 138.416H143.2L141.63 136.359H145.895L146.066 136.578L146.354 136.359H147.76L149.33 138.416ZM142.569 138.416H136.439L134.869 136.359H140.999L142.569 138.416ZM135.808 138.416H129.678L128.108 136.359H134.238L135.808 138.416ZM129.047 138.416H121.806L120.517 136.359H127.477L129.047 138.416ZM121.216 138.416H113.633L112.885 136.359H119.921L121.21 138.416H121.216ZM122.087 141.508L122.046 141.46L121.978 141.508H119.825L118.22 138.958H121.552L121.566 138.971L121.594 138.958H124.426L126.373 141.508H122.08H122.087ZM128.848 141.508L128.807 141.46L128.739 141.508H127.004L125.056 138.958H129.459L129.507 139.026L129.596 138.958H131.187L133.134 141.508H128.842H128.848ZM135.609 141.508L135.568 141.46L135.5 141.508H133.765L131.817 138.958H136.22L136.268 139.026L136.357 138.958H137.948L139.895 141.508H135.603H135.609ZM142.37 141.508L142.329 141.46L142.261 141.508H140.526L138.578 138.958H142.981L143.029 139.026L143.118 138.958H144.709L146.656 141.508H142.364H142.37ZM149.131 141.508L149.09 141.46L149.022 141.508H147.287L145.34 138.958H149.742L149.79 139.026L149.879 138.958H151.47L153.417 141.508H149.125H149.131ZM155.892 141.508L155.851 141.46L155.783 141.508H154.048L152.101 138.958H156.503L156.551 139.026L156.64 138.958H158.231L160.178 141.508H155.886H155.892ZM167.981 141.508H160.809L158.862 138.958H163.264L163.312 139.026L163.401 138.958H166.034L167.981 141.508ZM168.009 136.366L169.579 138.423H163.476L161.906 136.366H168.009ZM164.532 134.014L165.917 135.824H159.636L158.251 134.014H164.532ZM157.62 134.014L159.006 135.824H152.875L151.49 134.014H157.62ZM150.859 134.014L152.245 135.824H146.114L144.729 134.014H150.859ZM144.098 134.014L145.483 135.824H139.353L137.968 134.014H144.098ZM137.337 134.014L138.722 135.824H132.592L131.207 134.014H137.337ZM130.576 134.014L131.961 135.824H125.831L124.446 134.014H130.576ZM123.815 134.014L125.2 135.824H116.259L115.066 134.014H123.815ZM114.469 134.014L115.662 135.824H109.011V134.014H114.469ZM112.364 136.366L113.112 138.423H104.396L105.281 136.366H112.364ZM108.504 134.014V135.824H105.116L104.993 135.769L104.972 135.824H101.791L102.922 134.014H108.504ZM102.332 134.014L101.201 135.824H98.3003L98.2043 135.762L98.17 135.824H94.529L95.9141 134.014H102.332ZM95.2832 134.014L93.8981 135.824H87.7679L89.1531 134.014H95.2832ZM88.5222 134.014L87.1371 135.824H81.0069L82.392 134.014H88.5222ZM81.7612 134.014L80.3761 135.824H74.2459L75.631 134.014H81.7612ZM75.0002 134.014L73.6151 135.824H67.4849L68.87 134.014H75.0002ZM62.109 134.014H68.2391L66.854 135.824H60.7239L62.109 134.014ZM55.2451 138.416L56.8153 136.359H62.9455L61.3753 138.416H55.2451ZM59.5376 138.958H61.2724L61.4713 139.108L61.5878 138.958H65.6678L63.7204 141.508H57.5902L59.5376 138.958Z" fill="#D8E7FD"/>
</g>
<g id="Group_24" style="mix-blend-mode:screen">
<g id="Vector_79" style="mix-blend-mode:multiply">
<path d="M130.576 134.02L131.66 135.433H131.68L130.302 133.623H124.165L124.467 134.02H130.576Z" fill="#D8E7FD"/>
</g>
<g id="Vector_80" style="mix-blend-mode:multiply">
<path d="M148.11 135.975L148.411 136.366H154.521L155.796 138.032H155.81L154.24 135.975H148.11Z" fill="#D8E7FD"/>
</g>
<g id="Vector_81" style="mix-blend-mode:multiply">
<path d="M146.08 135.975L145.785 136.194L145.614 135.975H141.349L141.65 136.366H145.895L146.066 136.592L146.361 136.366H147.76L149.035 138.032H149.056L147.479 135.975H146.08Z" fill="#D8E7FD"/>
</g>
<g id="Vector_82" style="mix-blend-mode:multiply">
<path d="M134.588 135.975L134.889 136.366H140.999L142.274 138.032H142.295L140.718 135.975H134.588Z" fill="#D8E7FD"/>
</g>
<g id="Vector_83" style="mix-blend-mode:multiply">
<path d="M98.4169 136.366H104.286L104.458 135.975H98.1357L96.8466 138.032H97.3746L98.4169 136.366Z" fill="#D8E7FD"/>
</g>
<g id="Vector_84" style="mix-blend-mode:multiply">
<path d="M105.281 136.366H112.22L112.083 135.975H105L104.115 138.032H104.568L105.281 136.366Z" fill="#D8E7FD"/>
</g>
<g id="Vector_85" style="mix-blend-mode:multiply">
<path d="M90.6136 136.366H97.2992L97.546 135.975H90.3393L88.7622 138.032H89.345L90.6136 136.366Z" fill="#D8E7FD"/>
</g>
<g id="Vector_86" style="mix-blend-mode:multiply">
<path d="M134.238 136.366L135.513 138.032H135.534L133.964 135.975H127.827L128.128 136.366H134.238Z" fill="#D8E7FD"/>
</g>
<g id="Vector_87" style="mix-blend-mode:multiply">
<path d="M113.495 138.032L112.892 136.366H119.9L119.653 135.975H112.611L113.358 138.032H113.495Z" fill="#D8E7FD"/>
</g>
<g id="Vector_88" style="mix-blend-mode:multiply">
<path d="M161.632 135.975L161.933 136.366H168.016L169.284 138.032H169.305L167.735 135.975H161.632Z" fill="#D8E7FD"/>
</g>
<g id="Vector_89" style="mix-blend-mode:multiply">
<path d="M121.566 138.032L120.524 136.366H127.484L128.752 138.032H128.773L127.203 135.975H120.243L121.532 138.032H121.566Z" fill="#D8E7FD"/>
</g>
<g id="Vector_90" style="mix-blend-mode:multiply">
<path d="M83.8526 136.366H89.4067L89.7085 135.975H83.5783L82.0012 138.032H82.584L83.8526 136.366Z" fill="#D8E7FD"/>
</g>
<g id="Vector_91" style="mix-blend-mode:multiply">
<path d="M157.97 133.623L158.272 134.02H164.532L165.616 135.433H165.636L164.251 133.623H157.97Z" fill="#D8E7FD"/>
</g>
<g id="Vector_92" style="mix-blend-mode:multiply">
<path d="M108.73 135.433H109.004V134.02H114.449L114.188 133.623H108.723L108.73 135.433Z" fill="#D8E7FD"/>
</g>
<g id="Vector_93" style="mix-blend-mode:multiply">
<path d="M101.509 135.433H102.037L102.922 134.02H108.222V133.623H102.641L101.509 135.433Z" fill="#D8E7FD"/>
</g>
<g id="Vector_94" style="mix-blend-mode:multiply">
<path d="M115.978 135.433H115.998L115.066 134.02H123.815L124.899 135.433H124.919L123.541 133.623H114.785L115.978 135.433Z" fill="#D8E7FD"/>
</g>
<g id="Vector_95" style="mix-blend-mode:multiply">
<path d="M151.209 133.623L151.511 134.02H157.62L158.704 135.433H158.724L157.339 133.623H151.209Z" fill="#D8E7FD"/>
</g>
<g id="Vector_96" style="mix-blend-mode:multiply">
<path d="M131.228 134.02H137.337L138.421 135.433H138.441L137.056 133.623H130.926L131.228 134.02Z" fill="#D8E7FD"/>
</g>
<g id="Vector_97" style="mix-blend-mode:multiply">
<path d="M144.75 134.02H150.859L151.943 135.433H151.963L150.578 133.623H144.448L144.75 134.02Z" fill="#D8E7FD"/>
</g>
<g id="Vector_98" style="mix-blend-mode:multiply">
<path d="M137.989 134.02H144.098L145.182 135.433H145.202L143.817 133.623H137.687L137.989 134.02Z" fill="#D8E7FD"/>
</g>
<g id="Vector_99" style="mix-blend-mode:multiply">
<path d="M154.871 135.975L155.172 136.366H161.282L162.551 138.032H162.571L161.001 135.975H154.871Z" fill="#D8E7FD"/>
</g>
<g id="Vector_100" style="mix-blend-mode:multiply">
<path d="M161.172 132.08H161.152L161.92 133.081H161.94L161.172 132.08Z" fill="#D8E7FD"/>
</g>
<g id="Vector_101" style="mix-blend-mode:multiply">
<path d="M140.889 132.08H140.869L141.637 133.081H141.657L140.889 132.08Z" fill="#D8E7FD"/>
</g>
<g id="Vector_102" style="mix-blend-mode:multiply">
<path d="M154.411 132.08H154.391L155.159 133.081H155.179L154.411 132.08Z" fill="#D8E7FD"/>
</g>
<g id="Vector_103" style="mix-blend-mode:multiply">
<path d="M127.367 132.08H127.347L128.121 133.081H128.135L127.367 132.08Z" fill="#D8E7FD"/>
</g>
<g id="Vector_104" style="mix-blend-mode:multiply">
<path d="M147.65 132.08H147.63L148.398 133.081H148.418L147.65 132.08Z" fill="#D8E7FD"/>
</g>
<g id="Vector_105" style="mix-blend-mode:multiply">
<path d="M134.128 132.08H134.108L134.876 133.081H134.896L134.128 132.08Z" fill="#D8E7FD"/>
</g>
<g id="Vector_106" style="mix-blend-mode:multiply">
<path d="M61.197 133.623H54.0588C53.9422 133.753 53.8325 133.883 53.7159 134.014H60.8884L61.1901 133.623H61.197Z" fill="#D8E7FD"/>
</g>
<g id="Vector_107" style="mix-blend-mode:multiply">
<path d="M54.7102 139.115L54.8268 138.964H58.3239L58.6256 138.574H54.5457L54.4291 138.724L54.2302 138.574H49.7732C49.6566 138.704 49.5469 138.834 49.4303 138.964H54.5045L54.7034 139.115H54.7102Z" fill="#D8E7FD"/>
</g>
<g id="Vector_108" style="mix-blend-mode:multiply">
<path d="M174.139 141.659H170.34L170.642 142.05H174.461C174.352 141.913 174.249 141.783 174.146 141.659H174.139Z" fill="#D8E7FD"/>
</g>
<g id="Vector_109" style="mix-blend-mode:multiply">
<path d="M55.9033 135.975H52.0291C51.9126 136.105 51.8028 136.235 51.6863 136.366H55.6016L55.9033 135.975Z" fill="#D8E7FD"/>
</g>
<g id="Vector_110" style="mix-blend-mode:multiply">
<path d="M142.844 138.574L142.754 138.635L142.706 138.574H138.304L138.606 138.964H142.988L143.036 139.026L143.125 138.964H144.715L146.368 141.118H146.389L144.434 138.574H142.844Z" fill="#D8E7FD"/>
</g>
<g id="Vector_111" style="mix-blend-mode:multiply">
<path d="M56.8153 136.366H62.3627L62.6644 135.975H56.5342L54.9639 138.032H55.5399L56.8153 136.366Z" fill="#D8E7FD"/>
</g>
<g id="Vector_112" style="mix-blend-mode:multiply">
<path d="M63.5763 136.366H69.1237L69.4254 135.975H63.2952L61.7249 138.032H62.3009L63.5763 136.366Z" fill="#D8E7FD"/>
</g>
<g id="Vector_113" style="mix-blend-mode:multiply">
<path d="M129.321 138.574L129.239 138.635L129.184 138.574H124.782L125.084 138.964H129.465L129.513 139.026L129.603 138.964H131.193L132.846 141.118H132.867L130.912 138.574H129.321Z" fill="#D8E7FD"/>
</g>
<g id="Vector_114" style="mix-blend-mode:multiply">
<path d="M70.3374 136.366H75.8847L76.1864 135.975H70.0563L68.486 138.032H69.062L70.3374 136.366Z" fill="#D8E7FD"/>
</g>
<g id="Vector_115" style="mix-blend-mode:multiply">
<path d="M77.0984 136.366H82.6457L82.9474 135.975H76.8173L75.247 138.032H75.823L77.0984 136.366Z" fill="#D8E7FD"/>
</g>
<g id="Vector_116" style="mix-blend-mode:multiply">
<path d="M156.366 138.574L156.276 138.635L156.228 138.574H151.826L152.128 138.964H156.51L156.558 139.026L156.647 138.964H158.238L159.89 141.118H159.904L157.956 138.574H156.366Z" fill="#D8E7FD"/>
</g>
<g id="Vector_117" style="mix-blend-mode:multiply">
<path d="M149.605 138.574L149.515 138.635L149.467 138.574H145.065L145.367 138.964H149.749L149.797 139.026L149.886 138.964H151.477L153.129 141.118H153.143L151.195 138.574H149.605Z" fill="#D8E7FD"/>
</g>
<g id="Vector_118" style="mix-blend-mode:multiply">
<path d="M136.083 138.574L135.993 138.635L135.945 138.574H131.543L131.845 138.964H136.226L136.275 139.026L136.364 138.964H137.954L139.607 141.118H139.628L137.673 138.574H136.083Z" fill="#D8E7FD"/>
</g>
<g id="Vector_119" style="mix-blend-mode:multiply">
<path d="M163.127 138.574L163.037 138.635L162.989 138.574H158.587L158.889 138.964H163.271L163.319 139.026L163.408 138.964H166.041L167.687 141.118H167.707L165.76 138.574H163.127Z" fill="#D8E7FD"/>
</g>
<g id="Vector_120" style="mix-blend-mode:multiply">
<path d="M164.882 133.623L165.184 134.014H168.023C167.92 133.883 167.817 133.753 167.707 133.623H164.882Z" fill="#D8E7FD"/>
</g>
<g id="Vector_121" style="mix-blend-mode:multiply">
<path d="M59.9078 141.659H53.7777L51.7891 144.265H51.7411L51.4394 144.656H52.0703L54.0588 142.05H59.613L59.9147 141.659H59.9078Z" fill="#D8E7FD"/>
</g>
<g id="Vector_122" style="mix-blend-mode:multiply">
<path d="M53.1468 141.659H47.0989C46.9824 141.79 46.8726 141.92 46.7561 142.05H52.8451L53.1468 141.659Z" fill="#D8E7FD"/>
</g>
<g id="Vector_123" style="mix-blend-mode:multiply">
<path d="M73.4299 141.659H67.2997L65.3112 144.265H65.2632L64.9615 144.656H65.5923L67.5808 142.05H73.135L73.4367 141.659H73.4299Z" fill="#D8E7FD"/>
</g>
<g id="Vector_124" style="mix-blend-mode:multiply">
<path d="M58.2142 133.081H58.797L59.565 132.08H58.9822L58.2142 133.081Z" fill="#D8E7FD"/>
</g>
<g id="Vector_125" style="mix-blend-mode:multiply">
<path d="M92.0193 133.081H92.5953L93.3633 132.08H92.7873L92.0193 133.081Z" fill="#D8E7FD"/>
</g>
<g id="Vector_126" style="mix-blend-mode:multiply">
<path d="M71.7362 133.081H72.3122L73.087 132.08H72.5042L71.7362 133.081Z" fill="#D8E7FD"/>
</g>
<g id="Vector_127" style="mix-blend-mode:multiply">
<path d="M64.9752 133.081H65.558L66.326 132.08H65.7432L64.9752 133.081Z" fill="#D8E7FD"/>
</g>
<g id="Vector_128" style="mix-blend-mode:multiply">
<path d="M85.2582 133.081H85.8342L86.6022 132.08H86.0262L85.2582 133.081Z" fill="#D8E7FD"/>
</g>
<g id="Vector_129" style="mix-blend-mode:multiply">
<path d="M78.4972 133.081H79.0732L79.8412 132.08H79.2652L78.4972 133.081Z" fill="#D8E7FD"/>
</g>
<g id="Vector_130" style="mix-blend-mode:multiply">
<path d="M80.1909 141.659H74.0607L72.0722 144.265H72.0242L71.7225 144.656H72.3533L74.3419 142.05H79.8961L80.1978 141.659H80.1909Z" fill="#D8E7FD"/>
</g>
<g id="Vector_131" style="mix-blend-mode:multiply">
<path d="M94.2478 135.433H94.8307L95.9072 134.02H101.804L102.051 133.623H95.6329L94.2478 135.433Z" fill="#D8E7FD"/>
</g>
<g id="Vector_132" style="mix-blend-mode:multiply">
<path d="M157.922 144.265H157.394L155.406 141.659H149.275L149.577 142.05H155.687L157.675 144.656H158.203L158.265 144.608L157.97 144.224L157.915 144.265H157.922Z" fill="#D8E7FD"/>
</g>
<g id="Vector_133" style="mix-blend-mode:multiply">
<path d="M164.937 144.265L162.948 141.659H156.03L156.331 142.05H163.229L165.218 144.656H165.849L165.547 144.265H164.937Z" fill="#D8E7FD"/>
</g>
<g id="Vector_134" style="mix-blend-mode:multiply">
<path d="M151.161 144.265H150.633L148.645 141.659H142.514L142.816 142.05H148.926L150.914 144.656H151.442L151.504 144.608L151.209 144.224L151.154 144.265H151.161Z" fill="#D8E7FD"/>
</g>
<g id="Vector_135" style="mix-blend-mode:multiply">
<path d="M171.705 144.272L169.709 141.666H163.579L163.881 142.057H169.99L171.986 144.663C172.178 144.663 172.39 144.663 172.617 144.663L172.315 144.272C172.096 144.272 171.89 144.272 171.705 144.272Z" fill="#D8E7FD"/>
</g>
<g id="Vector_136" style="mix-blend-mode:multiply">
<path d="M86.9519 141.659H80.8218L78.8332 144.265H78.7852L78.4835 144.656H79.1144L81.1029 142.05H86.6571L86.9588 141.659H86.9519Z" fill="#D8E7FD"/>
</g>
<g id="Vector_137" style="mix-blend-mode:multiply">
<path d="M130.878 144.265H130.35L128.361 141.659H122.231L122.533 142.05H128.643L130.631 144.656H131.159L131.221 144.608L130.926 144.224L130.871 144.265H130.878Z" fill="#D8E7FD"/>
</g>
<g id="Vector_138" style="mix-blend-mode:multiply">
<path d="M124.117 144.265H123.589L121.6 141.659H87.5828L85.5942 144.265H85.5462L85.2445 144.656H85.8754L87.8639 142.05H121.882L123.87 144.656H124.398L124.46 144.608L124.165 144.224L124.11 144.265H124.117Z" fill="#D8E7FD"/>
</g>
<g id="Vector_139" style="mix-blend-mode:multiply">
<path d="M144.4 144.265H143.872L141.884 141.659H135.753L136.055 142.05H142.165L144.153 144.656H144.681L144.743 144.608L144.448 144.224L144.393 144.265H144.4Z" fill="#D8E7FD"/>
</g>
<g id="Vector_140" style="mix-blend-mode:multiply">
<path d="M137.639 144.265H137.111L135.123 141.659H128.992L129.294 142.05H135.404L137.392 144.656H137.92L137.982 144.608L137.687 144.224L137.632 144.265H137.639Z" fill="#D8E7FD"/>
</g>
<g id="Vector_141" style="mix-blend-mode:multiply">
<path d="M66.6689 141.659H60.5387L58.5501 144.265H58.5022L58.2004 144.656H58.8313L60.8198 142.05H66.374L66.6757 141.659H66.6689Z" fill="#D8E7FD"/>
</g>
<g id="Vector_142" style="mix-blend-mode:multiply">
<path d="M98.4443 133.081H98.9723L99.6031 132.08H99.0752L98.4443 133.081Z" fill="#D8E7FD"/>
</g>
<g id="Vector_143" style="mix-blend-mode:multiply">
<path d="M66.2986 138.964H68.0334L68.2323 139.115L68.3488 138.964H71.8459L72.1476 138.574H68.0677L67.9511 138.724L67.7523 138.574H66.0175L64.0632 141.118H64.6461L66.2986 138.964Z" fill="#D8E7FD"/>
</g>
<g id="Vector_144" style="mix-blend-mode:multiply">
<path d="M59.5376 138.964H61.2724L61.4713 139.115L61.5878 138.964H65.0849L65.3866 138.574H61.3067L61.1901 138.724L60.9913 138.574H59.2564L57.3022 141.118H57.885L59.5376 138.964Z" fill="#D8E7FD"/>
</g>
<g id="Vector_145" style="mix-blend-mode:multiply">
<path d="M86.5748 138.964H88.3165L88.5153 139.115L88.6319 138.964H92.129L92.4307 138.574H88.3508L88.2342 138.724L88.0353 138.574H86.2936L84.3463 141.118H84.9291L86.5748 138.964Z" fill="#D8E7FD"/>
</g>
<g id="Vector_146" style="mix-blend-mode:multiply">
<path d="M79.8138 138.964H81.5555L81.7543 139.115L81.8709 138.964H85.368L85.6697 138.574H81.5897L81.4732 138.724L81.2743 138.574H79.5395L77.5852 141.118H78.1681L79.8138 138.964Z" fill="#D8E7FD"/>
</g>
<g id="Vector_147" style="mix-blend-mode:multiply">
<path d="M73.0528 138.964H74.7944L74.9933 139.115L75.1099 138.964H78.6069L78.9086 138.574H74.8287L74.7122 138.724L74.5133 138.574H72.7785L70.8242 141.118H71.4071L73.0528 138.964Z" fill="#D8E7FD"/>
</g>
<g id="Vector_148" style="mix-blend-mode:multiply">
<path d="M87.4868 135.433H88.0696L89.153 134.02H94.7004L95.0021 133.623H88.8719L87.4868 135.433Z" fill="#D8E7FD"/>
</g>
<g id="Vector_149" style="mix-blend-mode:multiply">
<path d="M80.7258 135.433H81.3086L82.392 134.02H87.9394L88.2411 133.623H82.1109L80.7258 135.433Z" fill="#D8E7FD"/>
</g>
<g id="Vector_150" style="mix-blend-mode:multiply">
<path d="M73.9647 135.433H74.5476L75.631 134.02H81.1783L81.48 133.623H75.3498L73.9647 135.433Z" fill="#D8E7FD"/>
</g>
<g id="Vector_151" style="mix-blend-mode:multiply">
<path d="M67.2037 135.433H67.7866L68.87 134.02H74.4173L74.719 133.623H68.5888L67.2037 135.433Z" fill="#D8E7FD"/>
</g>
<g id="Vector_152" style="mix-blend-mode:multiply">
<path d="M60.4427 135.433H61.0255L62.1089 134.02H67.6563L67.958 133.623H61.8278L60.4427 135.433Z" fill="#D8E7FD"/>
</g>
<g id="Vector_153" style="mix-blend-mode:multiply">
<path d="M112.343 133.081H112.481L112.117 132.08H111.98L112.343 133.081Z" fill="#D8E7FD"/>
</g>
<g id="Vector_154" style="mix-blend-mode:multiply">
<path d="M93.3358 138.964H99.1712L99.418 138.574H93.0547L91.1073 141.118H91.6901L93.3358 138.964Z" fill="#D8E7FD"/>
</g>
<g id="Vector_155" style="mix-blend-mode:multiply">
<path d="M120.4 133.081H120.435L119.804 132.08H119.77L120.4 133.081Z" fill="#D8E7FD"/>
</g>
<g id="Vector_156" style="mix-blend-mode:multiply">
<path d="M105.699 133.081H106.152L106.584 132.08H106.131L105.699 133.081Z" fill="#D8E7FD"/>
</g>
<g id="Vector_157" style="mix-blend-mode:multiply">
<path d="M168.365 135.975L168.667 136.366H169.901C169.798 136.235 169.696 136.105 169.586 135.975H168.365Z" fill="#D8E7FD"/>
</g>
<g id="Vector_158" style="mix-blend-mode:multiply">
<path d="M109.189 141.118L109.176 138.964H117.603L117.418 138.663L117.569 138.574H108.901L108.908 141.118H109.189Z" fill="#D8E7FD"/>
</g>
<g id="Vector_159" style="mix-blend-mode:multiply">
<path d="M166.384 138.574L166.685 138.964H171.965C171.862 138.834 171.76 138.704 171.65 138.574H166.384Z" fill="#D8E7FD"/>
</g>
<g id="Vector_160" style="mix-blend-mode:multiply">
<path d="M100.227 139.054L100.083 138.964H108.401V138.574H99.802L99.946 138.663L98.41 141.118H98.938L100.227 139.054Z" fill="#D8E7FD"/>
</g>
<g id="Vector_161" style="mix-blend-mode:multiply">
<path d="M119.585 141.118L118.227 138.964H121.566L121.573 138.978L121.6 138.964H124.432L126.085 141.118H126.106L124.151 138.574H121.319L121.292 138.587L121.285 138.574H117.946L119.55 141.118H119.585Z" fill="#D8E7FD"/>
</g>
</g>
<g id="Vector_162" style="mix-blend-mode:multiply">
<path d="M87.2468 155.593C87.7954 155.593 88.3371 155.593 88.8856 155.593H130.899C131.358 155.593 132.647 155.661 132.798 155.236C132.798 155.222 132.805 155.202 132.812 155.188C132.99 154.653 132.023 152.898 131.742 152.322C131.049 150.937 130.364 149.559 129.671 148.173C129.493 147.81 129.157 147.515 128.931 147.515H126.586C123.898 148.667 119.022 150.381 111.473 151.753C101.503 153.556 91.4021 152.966 87.6925 152.651C87.5348 152.939 87.3839 153.227 87.2262 153.508C87.0548 153.83 86.3485 154.838 86.4514 155.312C86.5405 155.73 86.9999 155.586 87.2399 155.593H87.2468Z" fill="#D8E7FD"/>
</g>
<g id="Vector_163" style="mix-blend-mode:multiply" opacity="0.3">
<path d="M173.049 140.274C171.081 137.806 169.106 135.33 167.138 132.862C166.624 132.217 165.671 131.689 165.026 131.689H147.568C147.623 131.867 147.657 132.046 147.657 132.231C147.657 137.463 124.062 141.707 94.9541 141.707C76.1384 141.707 59.6267 139.931 50.3012 137.264C50.0475 137.552 49.8006 137.84 49.5469 138.128C48.3126 139.554 47.0784 140.974 45.8441 142.4C45.3435 142.976 43.3413 144.779 43.6361 145.623C43.8967 146.37 45.2064 146.116 45.899 146.116C47.4624 146.123 49.0258 146.116 50.5823 146.116H170.642C171.958 146.116 175.634 146.247 176.059 145.479C176.073 145.451 176.086 145.417 176.1 145.389C176.621 144.436 173.858 141.296 173.042 140.274H173.049Z" fill="#D8E7FD"/>
</g>
</g>
<path id="Vector_164" d="M164.251 60.3212H56.3834V122.645H164.251V60.3212Z" fill="white"/>
<path id="Vector_165" d="M169.538 50.934H52.0017V56.447H169.538V50.934Z" fill="#D75EA1"/>
<g id="Vector_166" style="mix-blend-mode:multiply">
<path d="M81.7749 62.7555H56.3834V122.645H81.7749V62.7555Z" fill="#D8E7FD"/>
</g>
<path id="Vector_167" d="M164.409 59.3749H56.4108V64.888H164.409V59.3749Z" fill="#F1D85A"/>
<g id="Vector_168" style="mix-blend-mode:multiply">
<path d="M116.629 67.9394H86.8285V97.74H116.629V67.9394Z" fill="#D8E7FD"/>
</g>
<g id="Vector_169" style="mix-blend-mode:multiply">
<path d="M127.834 68.0834H119.07V77.2992H127.834V68.0834Z" fill="#D8E7FD"/>
</g>
<path id="Vector_170" d="M127.834 78.3483H119.07V87.5642H127.834V78.3483Z" fill="#F1D85A"/>
<g id="Vector_171" style="mix-blend-mode:multiply">
<path d="M127.834 88.6064H119.07V97.8223H127.834V88.6064Z" fill="#D8E7FD"/>
</g>
<path id="Vector_172" d="M159.822 67.9394H130.021V97.74H159.822V67.9394Z" fill="#D75EA1"/>
<path id="Vector_173" d="M159.588 99.6805H86.7119V108.135H159.588V99.6805Z" fill="#D8E7FD"/>
<g id="Vector_174" style="mix-blend-mode:multiply">
<path d="M159.588 99.6805H86.7119V108.135H159.588V99.6805Z" fill="#D8E7FD"/>
</g>
<g id="Vector_175" style="mix-blend-mode:multiply">
<path d="M159.588 99.6805H86.7119V108.135H159.588V99.6805Z" fill="#D8E7FD"/>
</g>
<g id="Vector_176" style="mix-blend-mode:multiply">
<path d="M159.431 109.678H86.5543V114.135H159.431V109.678Z" fill="#D8E7FD"/>
</g>
<g id="Vector_177" style="mix-blend-mode:multiply">
<path d="M159.431 109.678H86.5543V114.135H159.431V109.678Z" fill="#D8E7FD"/>
</g>
<path id="Vector_178" d="M159.431 115.212H86.5543V119.669H159.431V115.212Z" fill="#38467D"/>
<g id="Vector_179" style="mix-blend-mode:multiply">
<path d="M79.9098 66.6022H58.2485V88.2636H79.9098V66.6022Z" fill="#D8E7FD"/>
</g>
<path id="Vector_180" d="M79.9098 89.635H58.2485V96.5194H79.9098V89.635Z" fill="#38467D"/>
<path id="Vector_181" d="M79.9098 98.6725H58.2485V105.557H79.9098V98.6725Z" fill="#D75EA1"/>
<g id="Vector_182" style="mix-blend-mode:multiply">
<path d="M79.9098 107.854H58.2485V114.739H79.9098V107.854Z" fill="#D8E7FD"/>
</g>
<g id="Vector_183" style="mix-blend-mode:multiply">
<path d="M79.9098 107.854H58.2485V114.739H79.9098V107.854Z" fill="#D8E7FD"/>
</g>
<path id="Vector_184" d="M79.9098 116.46H58.2485V121.479H79.9098V116.46Z" fill="#F1D85A"/>
<g id="Vector_185" style="mix-blend-mode:multiply">
<path d="M167.275 46.1958H151.703C149.131 59.6355 142.412 84.6225 126.695 96.7389C109.758 109.801 69.9603 116.041 52.0086 118.249V124.489C52.0086 125.737 53.0303 126.759 54.2782 126.759H167.275C168.523 126.759 169.545 125.737 169.545 124.489V48.4654C169.545 47.2174 168.523 46.1958 167.275 46.1958Z" fill="#D8E7FD"/>
</g>
<g id="Vector_186" style="mix-blend-mode:screen" opacity="0.25">
<path d="M55.6908 125.353V51.9214C55.6908 50.7145 56.6782 49.7271 57.885 49.7271H167.028C167.097 49.7271 167.159 49.7408 167.227 49.7477C167.22 48.5477 166.24 47.5672 165.04 47.5672H55.8896C54.6828 47.5672 53.6954 48.5546 53.6954 49.7614V123.193C53.6954 124.332 54.58 125.264 55.6908 125.367C55.6908 125.367 55.6908 125.36 55.6908 125.353Z" fill="#3A4587"/>
</g>
</g>
</g>
<g id="Group_25" style="mix-blend-mode:multiply">
<path id="Vector_187" d="M111.788 84.9859V81.5437H109.196C108.99 80.6043 108.62 79.7266 108.12 78.938L109.964 77.1003L107.537 74.6661L105.692 76.5038C104.91 75.9964 104.033 75.6261 103.093 75.4204V72.8216H99.658V75.4204C98.7117 75.6261 97.8409 75.9964 97.0523 76.4969L95.2147 74.6592L92.7804 77.0866L94.6181 78.9312C94.1107 79.7129 93.7404 80.5906 93.5347 81.53H90.9359V84.9654H93.5347C93.7404 85.9048 94.1107 86.7893 94.6112 87.571L92.7736 89.4087L95.2009 91.8429L97.0386 90.0053C97.8272 90.5127 98.698 90.883 99.6374 91.0887V93.6875H103.073V91.0887C104.019 90.883 104.89 90.5127 105.678 90.0121L107.516 91.8498L109.95 89.4224L108.113 87.5847C108.62 86.803 108.99 85.9253 109.196 84.9859H111.795H111.788ZM101.352 87.8453C98.8214 87.8453 96.7712 85.7882 96.7712 83.2511C96.7712 80.7209 98.8283 78.6706 101.365 78.6706C103.896 78.6706 105.953 80.7277 105.946 83.258C105.946 85.7882 103.889 87.8384 101.352 87.8384V87.8453Z" fill="#D8E7FD"/>
</g>
</g>
<g id="Vector_188" style="mix-blend-mode:multiply">
<path d="M211.379 95.388C211.379 95.4703 211.366 95.5595 211.318 95.6486C211.105 96.0463 210.886 96.4509 210.673 96.8486H210.948C211.969 96.8486 213.231 96.2589 213.807 95.388H211.373H211.379Z" fill="#F1D85A"/>
</g>
</g>
</g>
</svg>
