<svg width="102" height="97" viewBox="0 0 102 97" fill="none" xmlns="http://www.w3.org/2000/svg">
<g id="Frame" opacity="0.5" clip-path="url(#clip0_186_65)">
<path id="Vector" d="M88.8327 63.1645C87.9979 63.6801 87.1141 63.6494 86.1013 63.41C85.2973 63.0418 84.3643 62.4648 83.8488 61.6301L72.635 43.4743C71.475 41.5961 71.8249 39.3619 73.2857 38.4597L77.0421 36.1396C77.8768 35.624 78.7606 35.6547 79.7734 35.8941C80.5774 36.2624 81.5104 36.8393 82.026 37.6741L93.2397 55.8299C94.3997 57.708 94.0499 59.9422 92.589 60.8445L88.8327 63.1645ZM77.6865 37.183L73.9302 39.5031C72.8867 40.1476 72.6964 41.7066 73.4698 42.9587L84.6835 61.1145C85.0702 61.7405 85.6656 62.2377 86.3407 62.3973C87.0159 62.5569 87.5621 62.5078 87.9795 62.25L91.7359 59.9299C92.7793 59.2855 92.9696 57.7265 92.1962 56.4743L80.9825 38.3186C80.5958 37.6925 80.0005 37.1953 79.3253 37.0357C78.8588 36.7473 78.1039 36.9253 77.6865 37.183Z" fill="#0077B6"/>
<path id="Vector_2" d="M59.1994 81.4674C58.3646 81.983 57.4808 81.9523 56.468 81.7129C55.664 81.3446 54.731 80.7677 54.2155 79.9329L43.0017 61.7771C41.8417 59.899 42.1916 57.6648 43.6524 56.7625L47.4087 54.4424C48.2435 53.9269 49.1273 53.9576 50.1401 54.197C50.9441 54.5652 51.8771 55.1422 52.3927 55.9769L63.6064 74.1327C64.7664 76.0109 64.4165 78.2451 62.9557 79.1473L59.1994 81.4674ZM48.0532 55.4859L44.5055 57.6771C43.4621 58.3215 43.2718 59.8805 44.0452 61.1327L55.2589 79.2884C55.6456 79.9145 56.2409 80.4117 56.9161 80.5713C57.5913 80.7308 58.1375 80.6817 58.5549 80.424L62.3113 78.1039C63.3547 77.4594 63.545 75.9004 62.7716 74.6483L51.5579 56.4925C51.1712 55.8664 50.5759 55.3693 49.9007 55.2097C49.2255 55.0501 48.6793 55.0992 48.0532 55.4859Z" fill="#0077B6"/>
<path id="Vector_3" d="M59.1994 81.4674C58.3646 81.983 57.4808 81.9523 56.468 81.7129C55.664 81.3446 54.731 80.7677 54.2155 79.9329L43.0017 61.7771C41.8417 59.899 42.1916 57.6648 43.6524 56.7625L47.4087 54.4424C48.2435 53.9269 49.1273 53.9576 50.1401 54.197C50.9441 54.5652 51.8771 55.1422 52.3927 55.9769L55.615 61.1941L76.0663 48.5626L72.844 43.3454C71.684 41.4672 72.0338 39.233 73.4946 38.3308L77.251 36.0107C78.0857 35.4951 78.9696 35.5258 79.9823 35.7652C80.7864 36.1335 81.7193 36.7104 82.2349 37.5452L93.4486 55.701C94.6087 57.5792 94.2588 59.8133 92.798 60.7156L89.0416 63.0357C87.5808 63.9379 85.4264 63.2505 84.2664 61.3723L81.0441 56.1551L60.5927 68.7866L63.8151 74.0038C64.9751 75.882 64.6252 78.1162 63.1644 79.0184L59.1994 81.4674ZM48.0532 55.4859L44.5055 57.6771C43.4621 58.3215 43.2718 59.8805 44.0452 61.1327L55.2589 79.2884C55.6456 79.9145 56.2409 80.4117 56.9161 80.5713C57.5913 80.7308 58.1375 80.6817 58.5549 80.424L62.3113 78.1039C63.3547 77.4594 63.545 75.9004 62.7716 74.6483L58.9048 68.3877L81.0257 54.725L84.8925 60.9856C85.6658 62.2377 87.145 62.7656 88.1885 62.1211L91.9448 59.801C92.9883 59.1566 93.1785 57.5976 92.4052 56.3454L81.1915 38.1897C80.8048 37.5636 80.2094 37.0664 79.5343 36.9068C78.8591 36.7473 78.3128 36.7964 77.8955 37.0541L74.1391 39.3742C73.0957 40.0187 72.9054 41.5777 73.6787 42.8298L77.5455 49.0904L55.4247 62.7531L51.5579 56.4925C51.1712 55.8664 50.5759 55.3693 49.9007 55.2097C49.2255 55.0501 48.6793 55.0992 48.0532 55.4859Z" fill="#0077B6"/>
<path id="Vector_4" d="M94.7495 55.4739C94.1234 55.8606 93.3684 56.0385 92.5644 55.6703C91.8892 55.5107 91.2939 55.0135 90.7783 54.1788L82.2713 40.4054C81.3691 38.9446 81.768 37.2567 83.0202 36.4834L85.7331 34.8077C86.3592 34.4211 87.1141 34.2431 87.9182 34.6113C88.5933 34.7709 89.1887 35.2681 89.7043 36.1028L98.2112 49.8762C99.1135 51.337 98.7145 53.0249 97.4624 53.7983L94.7495 55.4739ZM91.9506 53.743C92.2084 54.1604 92.6749 54.4488 93.1413 54.7373C93.4789 54.8171 94.0252 54.768 94.2339 54.6391L96.9468 52.9635C97.5729 52.5768 97.6834 51.3554 97.1678 50.5207L88.6608 36.7473C88.403 36.3299 87.9366 36.0415 87.4701 35.753C87.1325 35.6732 86.5863 35.7223 86.3776 35.8512L83.6646 37.5268C83.0386 37.9135 82.9281 39.1349 83.4437 39.9696L91.9506 53.743Z" fill="#0077B6"/>
<path id="Vector_5" d="M50.2993 82.9281C49.6732 83.3148 48.9182 83.4928 48.1142 83.1245C47.439 82.965 46.8437 82.4678 46.3281 81.633L37.8211 67.8597C36.9189 66.3989 37.3179 64.711 38.57 63.9376L41.4916 62.1331C42.7437 61.3598 44.5605 61.9674 45.3339 63.2195L53.8408 76.9929C54.7431 78.4537 54.3441 80.1416 53.092 80.915L50.1704 82.7195L50.2993 82.9281ZM47.5004 81.1973C47.7582 81.6146 48.2247 81.9031 48.6912 82.1916C49.0287 82.2714 49.575 82.2223 49.7837 82.0934L52.7053 80.2889C53.3314 79.9022 53.4419 78.6808 52.9263 77.846L44.4193 64.0727C43.9038 63.2379 42.7621 62.7899 42.1361 63.1766L39.4231 64.8522C38.7971 65.2388 38.6866 66.4603 39.2021 67.295L47.5004 81.1973Z" fill="#0077B6"/>
<path id="Vector_6" d="M60.6604 51.1588C60.4517 51.2877 60.243 51.4166 59.6967 51.4657L55.5046 52.6134C53.786 53.0983 51.7912 51.7357 51.3861 49.6795L46.3225 28.8784C46.0156 27.9147 46.255 26.902 46.6233 26.0979C46.9916 25.2939 47.6974 24.5696 48.6611 24.2627L52.9821 23.3237C54.7007 22.8388 56.4868 24.3303 57.1006 26.2576L62.1642 47.0587C62.4404 48.9062 61.7038 50.5143 60.6604 51.1588ZM48.3419 25.6131C47.9245 25.8708 47.7158 25.9997 47.4274 26.4662C47.2678 27.1414 47.1082 27.8165 47.2862 28.5715L52.3498 49.3726C52.7057 50.8825 53.8965 51.8769 55.1977 51.6498L59.3899 50.502C60.6911 50.2749 61.2189 48.7957 60.8629 47.2858L55.7994 26.4847C55.4434 24.9748 54.2526 23.9804 52.9514 24.2075L48.7593 25.3553C48.7593 25.3553 48.5506 25.4842 48.3419 25.6131Z" fill="#0077B6"/>
<path id="Vector_7" d="M26.8159 59.3771C26.6072 59.506 26.3985 59.6349 25.8523 59.684L21.6601 60.8318C19.9415 61.3167 18.1554 59.8252 17.5416 57.8979L12.478 37.0967C12.3798 36.0042 12.4105 35.1204 12.7788 34.3163C13.3558 33.3834 13.8529 32.788 14.9455 32.6898L19.1376 31.542C20.8562 31.0572 22.6423 32.5487 23.2561 34.4759L28.3197 55.2771C28.5959 57.1246 28.068 58.6038 26.8159 59.3771ZM14.4974 33.8314C14.08 34.0892 13.8713 34.2181 13.5829 34.6846C13.4233 35.3597 13.3926 36.2436 13.5706 36.9985L18.714 57.4621C19.0699 58.972 20.2607 59.9663 21.5619 59.7393L25.7541 58.5915C27.0553 58.3644 27.5831 56.8852 27.2272 55.3753L22.1636 34.5741C21.8076 33.0642 20.6168 32.0699 19.3156 32.297L15.2524 33.6534C14.9148 33.5736 14.7061 33.7025 14.4974 33.8314Z" fill="#0077B6"/>
<path id="Vector_8" d="M60.6601 51.1588C60.4514 51.2877 60.2428 51.4166 59.6965 51.4657L55.5043 52.6134C53.7858 53.0983 51.791 51.7357 51.3859 49.6795L49.9619 43.6399L26.6872 49.3663L28.1112 55.406C28.4181 56.3696 28.1787 57.3824 27.8104 58.1864C27.4421 58.9905 26.7363 59.7147 25.7726 60.0216L21.5805 61.1694C19.8619 61.6542 18.0758 60.1627 17.462 58.2355L12.3984 37.4343C12.38 36.0042 12.4107 35.1204 12.779 34.3163C13.356 33.3834 13.8531 32.788 14.9457 32.6898L19.1378 31.542C20.8564 31.0572 22.8512 32.4198 23.2563 34.4759L24.6802 40.5156L47.9549 34.7891L46.531 28.7495C46.2241 27.7858 46.4635 26.7731 46.8317 25.969C47.2 25.165 47.9059 24.4407 48.8695 24.1338L52.9819 23.3237C54.7005 22.8388 56.4866 24.3303 57.1003 26.2576L62.1639 47.0587C62.4401 48.9062 61.7036 50.5143 60.6601 51.1588ZM25.4965 48.372L50.8274 42.2405L52.5582 49.2437C52.9142 50.7536 54.1049 51.748 55.4062 51.5209L59.5983 50.3731C60.8995 50.146 61.4274 48.6668 61.0714 47.1569L56.0078 26.3558C55.6518 24.8459 54.4611 23.8515 53.1599 24.0786L48.9677 25.2264C48.4214 25.2755 47.9243 25.8708 47.6358 26.3373C47.4762 27.0125 47.3166 27.6876 47.4946 28.4426L49.2254 35.4459L23.8148 41.915L22.084 34.9117C21.728 33.4018 20.5372 32.4075 19.236 32.6346L15.2526 33.6534C14.7063 33.7025 14.2091 34.2979 13.9206 34.7644C13.4235 35.3597 13.3928 36.2436 13.5708 36.9985L18.7142 57.4621C19.0701 58.972 20.2609 59.9663 21.5621 59.7393L25.7542 58.5915C26.3005 58.5424 26.7977 57.947 27.0862 57.4806C27.2457 56.8054 27.4053 56.1302 27.2273 55.3753L25.4965 48.372Z" fill="#0077B6"/>
<path id="Vector_9" d="M67.5777 46.0215C67.369 46.1504 67.1603 46.2792 66.9516 46.4081L63.7231 47.249C62.2132 47.605 60.8936 46.402 60.5376 44.8921L56.5911 29.1669C56.2351 27.657 56.9716 26.0489 58.4815 25.6929L61.5811 24.6434C63.0911 24.2874 64.4107 25.4904 64.7667 27.0003L68.7132 42.7255C69.0692 44.2354 68.4124 45.5059 67.5777 46.0215ZM61.5012 44.5852C61.8081 45.5488 62.6613 46.4634 63.6249 46.1565L66.8534 45.3156C67.6084 45.1376 68.0564 43.996 67.9582 42.9034L64.0117 27.1783C63.7048 26.2147 62.8517 25.3001 61.888 25.607L58.6595 26.4479C57.9046 26.6259 57.4565 27.7675 57.5547 28.86L61.5012 44.5852Z" fill="#0077B6"/>
<path id="Vector_10" d="M16.9156 58.2846C16.7069 58.4135 16.4982 58.5423 16.2895 58.6712L13.061 59.5121C12.3061 59.6901 11.6309 59.5305 11.0356 59.0333C10.4402 58.5362 10.0535 57.9101 9.87551 57.1552L5.92898 41.43C5.75098 40.6751 5.78168 39.7912 6.07016 39.3247C6.43843 38.5207 7.06449 38.134 7.61076 38.0849L10.8393 37.244C11.5942 37.066 12.2694 37.2256 12.8647 37.7228C13.4601 38.22 13.8468 38.846 14.0248 39.601L17.9713 55.3261C18.2291 55.7435 18.1984 56.6274 17.8301 57.4314C17.5417 57.8979 17.333 58.0268 16.9156 58.2846ZM10.8392 56.8483C10.8883 57.3945 11.146 57.8119 11.6125 58.1004C12.079 58.3889 12.4166 58.4687 12.6253 58.3398L15.9827 57.7076C16.4 57.4498 16.6087 57.3209 16.8972 56.8544C17.1857 56.388 17.1366 55.8417 17.0875 55.2954L13.1409 39.5703C13.0918 39.024 12.8341 38.6066 12.3676 38.3182C11.9011 38.0297 11.5635 37.9499 11.3548 38.0788L7.99744 38.711C7.58007 38.9687 7.37138 39.0976 7.0829 39.5641C6.79442 40.0306 6.84352 40.5769 6.89262 41.1231L10.8392 56.8483Z" fill="#0077B6"/>
</g>
<defs>
<clipPath id="clip0_186_65">
<rect width="79.2264" height="65" fill="white" transform="translate(0 41.6325) rotate(-31.7011)"/>
</clipPath>
</defs>
</svg>
