<svg width="66" height="76" viewBox="0 0 66 76" fill="none" xmlns="http://www.w3.org/2000/svg">
<g id="Frame" opacity="0.5" clip-path="url(#clip0_186_52)">
<path id="Vector" d="M40.2548 69.1906C25.6686 72.4689 11.8303 64.2534 8.83709 50.9357C7.41176 44.5939 8.27732 38.0703 11.7188 32.6333C10.2687 30.6275 9.52401 28.7962 9.02514 26.5766C7.02967 17.698 13.952 8.48077 25.3672 5.91516C36.4653 3.42082 46.983 8.71842 48.9785 17.5969C49.4061 19.4995 49.4453 21.1562 49.1675 22.8842C54.9928 26.5715 58.9549 32.3432 60.4515 39.0021C63.516 52.6369 54.5238 65.9836 40.2548 69.1906ZM25.581 6.86643C15.117 9.21824 8.0522 17.8013 9.97641 26.3628C10.4753 28.5824 11.5371 30.3424 12.9159 32.0311C12.9872 32.3482 12.9872 32.3482 13.0585 32.6653C9.93403 38.031 8.68012 44.3088 10.1055 50.6506C13.0274 63.6513 26.089 71.3751 40.041 68.2393C53.9929 65.1036 62.4934 52.5337 59.5715 39.533C58.1461 33.1912 54.1841 27.4195 48.43 24.0492C48.1129 24.1205 48.0416 23.8034 48.2875 23.4151C48.5653 21.6871 48.4548 19.7133 48.0985 18.1278C45.7859 9.32058 36.045 4.51463 25.581 6.86643ZM54.6406 41.3074C54.3235 41.3787 53.9351 41.1329 53.8639 40.8158C51.5193 33.3481 45.0205 28.1466 37.086 26.9319C36.7689 27.0032 36.6977 26.6861 36.6264 26.369C36.5551 26.0519 36.8722 25.9807 37.1893 25.9094C45.1878 24.4448 53.0262 29.6784 54.8079 37.6056C55.0217 38.5569 55.3068 39.8253 55.2035 40.8478C55.2035 40.8478 54.9577 41.2361 54.6406 41.3074ZM41.0336 26.7109C46.4314 28.4957 50.6 32.2223 53.3258 36.9394C52.043 31.2318 46.8518 27.4019 41.0336 26.7109ZM15.7625 28.3934C15.4454 28.4647 15.3742 28.1476 15.3742 28.1476C14.8433 27.2676 14.6295 26.3163 14.4157 25.365C12.9903 19.0232 18.2631 12.8415 26.5075 10.9886C34.7518 9.13566 42.1626 12.4667 43.5879 18.8085C43.7305 19.4427 43.873 20.0768 43.6985 20.7823C43.7697 21.0994 43.7697 21.0994 43.4526 21.1706C43.1355 21.2419 43.1355 21.2419 42.8184 21.3132C38.5145 19.9487 33.7902 19.6781 29.3509 20.6759C24.2775 21.8161 19.5604 24.5418 15.7625 28.3934C16.0796 28.3221 16.0796 28.3221 15.7625 28.3934ZM26.7925 12.257C19.1824 13.9674 14.1554 19.7607 15.3669 25.1512C15.5095 25.7854 15.652 26.4196 16.0404 26.6654C19.5924 23.2022 23.9924 20.5478 29.0659 19.4075C33.5051 18.4098 38.2294 18.6804 42.8505 19.9735C42.7792 19.6565 42.7079 19.3394 42.6367 19.0223C41.4251 13.6317 34.4027 10.5466 26.7925 12.257Z" fill="#0077B6"/>
</g>
<defs>
<clipPath id="clip0_186_52">
<rect width="52.975" height="65" fill="white" transform="translate(0 11.6165) rotate(-12.6669)"/>
</clipPath>
</defs>
</svg>
