<svg width="86" height="86" viewBox="0 0 86 86" fill="none" xmlns="http://www.w3.org/2000/svg">
<g id="Frame" opacity="0.5" clip-path="url(#clip0_186_98)">
<path id="Vector" d="M46.0255 76.7938C42.5101 78.3354 38.5836 78.9396 34.246 78.6064C27.8567 78.0551 22.0514 75.0123 19.7328 70.9994L19.63 70.765C18.1623 68.0555 18.5696 64.5237 21.1312 61.4443C27.0151 53.8342 34.5147 50.5454 44.7401 47.7378C50.6731 45.9743 53.251 44.8438 57.7039 42.891L59.5788 42.0688C63.0942 40.5272 70.2729 39.0556 71.7406 41.7652L71.8434 41.9996C75.6009 49.2935 72.2334 52.4469 65.6012 58.9879C62.4681 62.0385 58.7347 65.6318 54.3433 70.9107C52.0449 73.3158 49.3065 75.355 46.0255 76.7938ZM20.8018 70.2511C23.0177 74.0297 28.4858 76.9409 34.5379 77.3606C42.0702 77.9695 48.9694 75.2234 53.4923 69.6073C57.8837 64.3284 61.6171 60.7351 64.7502 57.6846C71.6168 51.0407 74.3839 48.4301 70.9347 41.8392C70.9347 41.8392 70.9347 41.8392 70.832 41.6048C69.8782 40.0671 64.0028 40.6876 60.0187 42.4348L58.1438 43.257C53.6909 45.2097 50.8786 46.443 44.9456 48.2065C34.9546 50.9114 27.6894 54.0974 21.937 61.3704C19.581 64.9185 19.0998 67.6444 20.4647 70.1195L20.8018 70.2511Z" fill="#0077B6"/>
<path id="Vector_2" d="M37.667 69.8408C34.8547 71.0741 32.0712 71.736 28.9505 72.2662C25.4928 72.6648 23.1328 71.7437 21.8707 69.5029C20.6086 67.2621 21.0898 64.5362 23.0511 61.9995C25.6127 58.9201 28.1455 56.4122 31.7925 54.5334C35.1024 52.5231 39.1893 51.0103 45.1222 49.2467C50.8209 47.586 53.3988 46.4555 57.8517 44.5027L59.7266 43.6805C63.4763 42.0361 69.0146 41.284 69.734 42.9245C70.6878 44.4623 67.1599 48.5243 63.7185 50.8717L61.9463 51.9283C58.0362 54.4813 55.6638 56.0806 51.33 60.2165C47.3623 63.9126 44.0236 66.4944 40.8453 68.1676C39.9079 68.5787 38.8388 69.327 37.667 69.8408ZM35.7478 53.3578C34.3417 53.9744 33.1699 54.4883 32.1008 55.2365C28.791 57.2469 26.1554 59.5204 23.8281 62.497C21.9984 64.6965 21.6488 67.0853 22.6026 68.6231C23.6591 70.3952 25.682 71.1847 28.671 70.9916C32.9347 70.519 36.5529 69.2117 40.3314 66.9958C43.4069 65.0882 46.614 62.8435 50.5818 59.1475C54.9155 55.0116 57.2879 53.4123 61.1981 50.8593L62.9702 49.8027C66.4117 47.4552 68.7677 43.9071 68.4594 43.204C68.0195 42.8381 63.5503 42.842 59.8005 44.4864L57.9256 45.3086C53.4728 47.2613 50.8948 48.3918 45.1962 50.0526C41.4753 51.1255 38.3258 52.2272 35.7478 53.3578Z" fill="#0077B6"/>
<path id="Vector_3" d="M35.1592 67.308C34.9249 67.4108 34.9249 67.4108 34.6905 67.5136C32.5813 68.4385 29.7978 69.1004 27.8038 67.7393C26.7924 67.3446 26.1469 66.5099 25.5302 65.1038C24.1202 61.2512 26.7682 56.4574 31.7926 54.5334C36.8169 52.6095 42.0056 54.2462 43.5184 58.3331C43.8267 59.0361 44.0323 59.5049 43.7691 60.1791C43.3167 62.3335 39.1434 65.5608 35.1592 67.308ZM31.8377 55.9108C27.8536 57.658 25.366 61.5432 26.8048 64.8242C27.2159 65.7617 27.8614 66.5964 28.4041 67.1967C29.621 68.0601 31.7015 67.7067 34.3822 66.8105C38.3663 65.0633 42.5397 61.836 42.9632 60.2531C42.992 59.6816 43.2264 59.5788 42.9181 58.8757C41.7136 55.4919 36.9649 54.2212 32.6436 55.8368C32.3065 55.7052 32.0721 55.808 31.8377 55.9108Z" fill="#0077B6"/>
<path id="Vector_4" d="M66.9374 62.0346C66.2343 62.343 65.7656 62.5485 65.0625 62.8568C64.5938 63.0624 61.3416 63.9297 60.7701 63.9009C60.5357 64.0037 60.5357 64.0037 60.4329 63.7694L60.3302 63.535C60.2274 63.3006 60.2274 63.3006 60.1246 63.0663C60.0218 62.8319 60.2562 62.7291 60.2562 62.7291C61.8227 61.2039 63.1549 59.7813 64.3556 58.696C71.3537 51.715 74.7212 48.5617 71.272 41.9708L71.1692 41.7364C70.2154 40.1987 64.34 40.8192 60.3559 42.5664L58.481 43.3886C54.0282 45.3413 51.2158 46.5746 45.2829 48.3381C44.5798 48.6465 43.5396 48.8232 42.6021 49.2343L42.1334 49.4398C41.899 49.5426 41.899 49.5426 41.5619 49.411C41.5619 49.411 41.4591 49.1767 41.3564 48.9423C40.7234 45.5873 40.5139 40.6494 41.2419 35.3004C41.7932 28.9111 41.3658 26.0248 40.5848 21.0581C40.5109 20.2523 40.3053 19.7835 40.2314 18.9777C39.4216 14.5824 41.5106 7.23942 46.4034 5.65264C51.0618 4.16863 57.2494 8.72037 59.3337 12.8361C59.642 13.5392 59.9503 14.2423 60.493 14.8426C62.7829 19.427 64.045 21.6678 68.4893 26.7046C76.0869 35.1089 80.0788 42.3001 76.4395 53.1173C74.4206 56.797 71.3903 60.0819 66.9374 62.0346ZM62.3366 62.3757C63.3768 62.1989 64.5486 61.685 64.783 61.5823C69.9101 59.8927 73.512 56.6366 74.8566 52.6937C78.4671 42.4481 74.6807 35.7256 67.0831 27.3213C62.6388 22.2845 61.2739 19.8093 58.7497 15.3276C58.4414 14.6245 58.2358 14.1558 57.5904 13.3212C55.7116 9.67416 50.1983 5.38559 46.0086 6.66405C41.819 7.9425 40.0959 14.8456 40.7001 18.7721C40.774 19.578 41.0824 20.2811 41.0536 20.8526C41.8345 25.8193 42.2619 28.7056 41.8134 35.3292C41.4514 40.2383 41.2209 44.8103 41.8539 48.1653C42.7913 47.7542 43.8315 47.5774 44.5346 47.2691C50.4676 45.5056 53.0456 44.375 57.4984 42.4223L59.3733 41.6001C62.8887 40.0585 70.0675 38.5869 71.5351 41.2965L71.6379 41.5308C75.3954 48.8248 71.662 52.4181 64.6639 59.3991C64.2691 60.4105 63.3029 61.3931 62.3366 62.3757ZM48.3561 10.1055C48.1218 10.2083 47.8874 10.311 47.653 10.4138C46.1441 10.7961 44.7956 10.2698 44.7216 9.46391C44.6188 9.22955 44.8532 9.12677 44.7504 8.89241L44.882 8.55528C44.9108 7.98378 45.7455 7.33832 46.5513 7.26435C47.2544 6.95603 48.0603 6.88206 48.5002 7.24801C49.4088 7.4084 49.8487 7.77435 49.8199 8.34584C50.1282 9.04893 49.5279 9.59161 48.3561 10.1055ZM47.4763 9.3736C48.5165 9.19686 48.8825 8.75694 48.7797 8.52258C48.7797 8.52258 48.6769 8.28822 48.1054 8.25941L47.7683 8.12783C47.7683 8.12783 47.1968 8.09902 46.7281 8.30457C46.2593 8.51012 46.025 8.61289 45.7906 8.71567L45.659 9.05281C45.659 9.05281 45.659 9.05281 45.4247 9.15558C45.7618 9.28717 46.4361 9.55034 47.4763 9.3736Z" fill="#0077B6"/>
</g>
<defs>
<clipPath id="clip0_186_98">
<rect width="64.7441" height="65" fill="white" transform="translate(0 26.0021) rotate(-23.6791)"/>
</clipPath>
</defs>
</svg>
