<svg width="68" height="78" viewBox="0 0 68 78" fill="none" xmlns="http://www.w3.org/2000/svg">
<g id="Frame" opacity="0.5" clip-path="url(#clip0_186_87)">
<path id="Vector" d="M31.2856 33.474C4.23003 35.1193 0.698632 19.7324 0.349429 18.9455C0.568291 18.3774 0.787153 17.8093 1.57408 17.4601C1.57408 17.4601 9.00562 15.1042 18.3578 17.0764C27.8845 19.4421 32.3356 31.5952 32.5102 31.9887C32.6848 32.3821 32.466 32.9502 32.466 32.9502C32.466 32.9502 32.0725 33.1248 31.6791 33.2994C31.6791 33.2994 31.6791 33.2994 31.2856 33.474ZM29.6699 30.8944C27.8796 27.9212 24.3434 21.0135 17.6569 19.7422C11.364 18.2962 5.72513 19.3856 3.40861 19.4717C4.80542 22.6194 10.1762 31.5387 29.6699 30.8944Z" fill="#0077B6"/>
<path id="Vector_2" d="M19.4274 56.6318C14.7107 50.2479 13.2278 44.7837 15.896 41.245C19.9634 36.6144 24.6407 35.4807 28.5311 34.6962C29.8861 34.5659 31.0665 34.0421 32.028 34.0863C32.8149 33.7371 33.8207 32.8198 35.0011 32.296C38.193 29.9377 41.9973 26.8367 48.3346 27.3211C52.7487 27.717 56.199 32.3083 57.3745 40.2636C59.3787 51.1478 56.4425 64.6952 49.7537 67.6635L45.0321 69.7587C38.1686 72.3334 26.1532 65.4208 19.4274 56.6318ZM36.661 33.9142C35.6552 34.8314 34.4748 35.3552 33.0756 36.4471C31.7206 36.5774 30.5402 37.1012 29.1852 37.2316C25.2948 38.0161 21.4045 38.8005 18.124 43.0819C16.287 45.3099 17.4207 49.9872 21.6136 55.1908C27.8156 62.7994 38.3014 69.4489 43.8099 67.0044L48.9249 64.7346C54.4334 62.2902 56.9319 49.8789 55.0579 40.3497C54.0128 33.7493 51.3052 29.7704 48.4206 29.6376C45.9295 29.3303 43.7876 29.8098 42.2138 30.5082C39.853 31.5558 38.4537 32.6477 36.661 33.9142Z" fill="#0077B6"/>
</g>
<defs>
<clipPath id="clip0_186_87">
<rect width="44.7682" height="65" fill="white" transform="translate(0 18.1585) rotate(-23.9295)"/>
</clipPath>
</defs>
</svg>
