<svg width="74" height="78" viewBox="0 0 74 78" fill="none" xmlns="http://www.w3.org/2000/svg">
<g id="Frame" opacity="0.5" clip-path="url(#clip0_186_93)">
<path id="Vector" d="M19.7066 67.9671C18.9077 67.7704 18.375 67.6393 17.6417 67.1763C6.78045 61.9602 4.06466 46.6042 6.88392 35.1529C8.85084 27.1636 13.952 21.3582 20.6631 19.3385C26.7105 17.7204 32.7701 19.4947 38.3092 24.5303C38.7559 19.2737 41.5339 14.8735 45.7131 11.6656C46.045 11.4649 46.3769 11.2641 46.9095 11.3953C47.4421 11.5264 47.7084 11.592 47.9092 11.9238C48.3107 12.5876 48.3147 13.7184 47.651 14.1199C43.8692 16.8607 41.755 20.8594 41.5049 25.317C49.0805 23.2278 55.5375 24.535 60.0769 29.042C65.149 33.6802 66.9063 41.4565 64.9394 49.4458C62.0546 61.1634 52.5857 73.2373 40.4787 73.0811C38.2171 73.0892 35.6852 71.9009 33.4195 70.7782C32.1535 70.1841 30.8875 69.59 29.6216 68.9959C28.2245 68.9343 26.8273 68.8728 25.4302 68.8113C23.2342 68.5531 21.3045 68.3605 19.7066 67.9671ZM28.6483 20.1747C25.9852 19.519 23.4573 19.4616 20.999 20.2686C14.8861 22.153 9.85051 27.6921 8.01472 35.1488C5.19546 46.6001 8.37425 61.2228 18.1703 66.1766C20.1696 67.2337 22.4312 67.2256 25.2254 67.3486C26.6225 67.4102 28.0196 67.4717 29.6831 67.5987C31.2154 68.2584 32.4814 68.8526 33.7473 69.4467C36.2793 70.635 38.2787 71.6921 40.5403 71.684C51.5164 71.8442 61.1205 60.3686 63.9397 48.9173C65.8411 41.1943 64.2189 34.0161 59.3476 29.7098C55.0089 25.5347 48.4864 24.4938 41.177 26.6486C40.9107 26.583 40.9107 26.583 40.6444 26.5175C40.3781 26.4519 40.4437 26.1856 40.4437 26.1856C40.5586 21.1298 42.804 16.5984 46.9832 13.3906C47.315 13.1898 47.3806 12.9235 47.1799 12.5916L46.9135 12.5261C46.9135 12.5261 46.6472 12.4605 46.5817 12.7268C42.1362 15.8691 39.8252 20.6668 39.6448 25.9889C39.5792 26.2552 39.5136 26.5215 39.2473 26.4559C38.981 26.3904 38.7147 26.3248 38.7147 26.3248C35.3101 22.9446 32.1104 21.027 28.6483 20.1747Z" fill="#0077B6"/>
<path id="Vector_2" d="M38.8136 16.7458C36.9494 16.2868 34.9501 15.2297 33.6801 13.5048C31.0744 10.3212 32.0538 5.19578 32.1194 4.92947C32.185 4.66316 32.5168 4.46241 32.7831 4.52798C33.0494 4.59354 38.1053 4.70846 40.9772 7.95757C43.5829 11.1411 42.6035 16.2666 42.5379 16.5329C42.4723 16.7992 42.1405 16.9999 41.8741 16.9344C41.6078 16.8688 40.4115 17.1392 38.8136 16.7458ZM34.4094 12.837C36.3472 15.2912 39.9404 15.6109 41.2719 15.9388C41.3334 14.5416 41.6531 10.9485 39.7153 8.49425C37.9782 6.37188 34.1843 5.72029 33.0535 5.72434C32.7912 6.78958 32.6723 10.7146 34.4094 12.837Z" fill="#0077B6"/>
</g>
<defs>
<clipPath id="clip0_186_93">
<rect width="59.5148" height="65" fill="white" transform="translate(15.5386) rotate(13.8309)"/>
</clipPath>
</defs>
</svg>
