<svg width="55" height="73" viewBox="0 0 55 73" fill="none" xmlns="http://www.w3.org/2000/svg">
<g id="Frame" opacity="0.5" clip-path="url(#clip0_186_96)">
<path id="Vector" d="M18.9343 67.694C17.8095 67.4368 16.7704 66.8047 16.9419 66.0549C16.9419 66.0549 16.6098 65.7817 16.2348 65.6959C15.8599 65.6102 15.4421 65.712 15.4421 65.712C15.2278 66.6493 12.7478 66.2796 11.9979 66.1081L9.18587 65.4652C8.43599 65.2937 5.99888 64.7365 6.25606 63.6117C6.25606 63.6117 5.92398 63.3385 5.54904 63.2528C5.1741 63.1671 4.75629 63.2688 4.75629 63.2688C4.58484 64.0187 3.3743 64.1364 2.24948 63.8793C0.937187 63.5792 0.342735 61.8652 0.728495 60.1779L2.3144 53.2415C2.40013 52.8666 3.04306 50.0545 4.35535 50.3546C4.54282 50.3974 4.81602 50.0654 4.90174 49.6904C5.03033 49.128 4.88572 48.8977 4.69825 48.8548C3.94837 48.6834 3.55741 47.8049 3.81458 46.6801C4.07176 45.5553 4.80562 44.934 5.36803 45.0625C5.59836 44.9179 5.95728 44.2109 6.25732 42.8986L7.7575 36.3372C8.05753 35.0249 8.04151 34.2321 7.89691 34.0018C6.85781 33.3697 7.45788 30.7451 7.54361 30.3702L7.80078 29.2453C7.8865 28.8704 8.52944 26.0584 9.84173 26.3584C10.0292 26.4013 10.3024 26.0692 10.3881 25.6942C10.5167 25.1318 10.3721 24.9015 10.1846 24.8586C9.29014 24.4568 9.30096 22.6839 9.64386 21.1841L9.72959 20.8092C10.1153 19.122 11.3796 17.0438 12.617 15.9458L16.0988 12.7965C17.3362 11.6985 17.8397 11.2218 18.1129 10.8897C18.1558 10.7022 18.2844 10.1398 18.4558 9.38995C18.5844 8.82754 18.8576 8.49546 19.3182 8.20625C19.3182 8.20625 19.5486 8.06164 19.736 8.1045L27.6098 9.90472C27.7973 9.94758 27.7973 9.94758 27.9419 10.1779C28.2311 10.6386 28.3328 11.0564 28.2042 11.6188C28.0328 12.3687 27.9042 12.9311 27.8614 13.1186C27.9631 13.5364 28.3969 14.2274 28.8468 15.7111L30.6141 20.0606C31.2514 21.5872 31.4869 24.0083 31.1012 25.6955L31.0155 26.0704C30.6726 27.5702 29.9119 29.1717 28.9745 28.9574C28.787 28.9145 28.5138 29.2466 28.4281 29.6215C28.2995 30.184 28.4441 30.4143 28.6316 30.4572C29.9439 30.7572 29.301 33.5692 29.2152 33.9442L28.9581 35.069C28.8723 35.4439 28.2723 38.0685 27.1046 37.9988C26.8743 38.1434 26.5153 38.8505 26.2153 40.1627L24.7151 46.7242C24.4151 48.0365 24.4311 48.8292 24.5757 49.0596C25.3256 49.231 25.4862 50.2541 25.2719 51.1914C25.0147 52.3163 24.2809 52.9376 23.531 52.7661C23.3435 52.7232 23.0703 53.0553 22.9846 53.4303C22.856 53.9927 23.0006 54.223 23.1881 54.2659C24.5004 54.5659 23.8574 57.378 23.7717 57.7529L22.1858 64.6893C21.5269 66.7086 20.2466 67.9941 18.9343 67.694ZM17.9221 66.0817C18.0667 66.312 18.4416 66.3977 19.1915 66.5692C19.9414 66.7406 20.761 65.7444 21.0181 64.6196L22.604 57.6832C22.9041 56.3709 22.8881 55.5782 22.7435 55.3478C21.9936 55.1764 21.7901 54.3408 22.0044 53.4034C22.2187 52.4661 22.9526 51.8448 23.7024 52.0162C23.7024 52.0162 24.1631 51.727 24.2917 51.1646C24.4203 50.6022 24.3185 50.1844 24.1311 50.1415C22.8188 49.8415 23.4617 47.0294 23.5474 46.6545L25.0476 40.093C25.3905 38.5933 26.1084 37.1792 26.9011 37.1632C27.1314 37.0186 27.4903 36.3116 27.7904 34.9993L28.0476 33.8745C28.3476 32.5622 28.3316 31.7694 28.187 31.5391C27.4371 31.3677 27.2336 30.5321 27.4479 29.5947C27.6622 28.6574 28.3961 28.0361 28.9585 28.1647C29.1888 28.02 29.5477 27.313 29.8478 26.0007L29.9335 25.6258C30.2335 24.3135 29.998 21.8924 29.5053 20.5961L27.738 16.2467C27.4756 14.8058 27.0418 14.1148 26.94 13.697C26.5651 13.6113 26.6937 13.0488 27.0794 11.3616C27.1223 11.1741 26.9777 10.9438 27.0205 10.7563L19.5217 9.04185C19.4789 9.22932 19.436 9.41679 19.3932 9.60426C19.0074 11.2915 18.9217 11.6664 18.6913 11.811C18.2307 12.1003 17.5397 12.5341 16.5326 13.4875L13.0508 16.6368C12.0437 17.5902 10.7795 19.6683 10.4795 20.9806L10.3937 21.3556C10.0937 22.6679 10.1097 23.4606 10.2543 23.6909C11.0042 23.8624 11.2077 24.698 10.9934 25.6354C10.7791 26.5727 10.0452 27.194 9.48281 27.0654C9.25248 27.21 8.89356 27.917 8.59352 29.2293L8.33635 30.3541C8.03631 31.6664 8.05233 32.4592 8.19694 32.6895C9.09143 33.0913 8.936 34.6339 8.5931 36.1337L7.09292 42.6951C7.0072 43.0701 6.36426 45.8821 5.05197 45.5821C5.05197 45.5821 4.59131 45.8713 4.46272 46.4337C4.33413 46.9961 4.43588 47.4139 4.62335 47.4568C5.37323 47.6282 5.76419 48.5067 5.54988 49.4441C5.33557 50.3814 4.60171 51.0027 4.03929 50.8741C3.80896 51.0187 3.45004 51.7258 3.15001 53.038L1.5641 59.9744C1.30693 61.0993 1.61216 62.3527 2.36204 62.5241C3.11192 62.6956 3.52973 62.5938 3.7172 62.6367C3.84578 62.0743 4.72425 61.6833 5.6616 61.8976C6.59895 62.1119 7.07564 62.6155 7.13452 63.2207C7.27913 63.4511 8.17362 63.8528 9.29844 64.11L12.1105 64.753C13.4228 65.053 14.2155 65.037 14.4459 64.8924C14.7619 64.3728 15.4101 64.1265 16.3474 64.3408C17.3865 64.9729 18.0507 65.5193 17.9221 66.0817ZM35.1853 70.8178L28.6239 69.3176C26.9367 68.9318 25.7798 67.0892 25.9781 65.3591L30.5219 38.5829C30.5648 38.3954 30.5648 38.3954 30.7951 38.2508C30.7951 38.2508 31.0254 38.1062 31.2129 38.1491L46.398 41.6209C46.5855 41.6638 46.5855 41.6638 46.7301 41.8941C46.7301 41.8941 46.8747 42.1244 46.8318 42.3119L39.2885 68.4023C38.7152 70.0467 36.8726 71.2035 35.1853 70.8178ZM31.3735 39.1721L26.7708 65.3431C26.4708 66.6553 27.3813 67.8499 28.6936 68.1499L35.255 69.6501C36.5673 69.9501 37.9065 69.2699 38.2065 67.9577L45.4338 42.3868L31.3735 39.1721ZM40.9445 53.3939L30.8211 51.0793C30.6336 51.0364 30.489 50.8061 30.5319 50.6186L32.2572 41.3469C32.3001 41.1594 32.3001 41.1594 32.5304 41.0148C32.5304 41.0148 32.7607 40.8702 32.9482 40.913L44.0089 43.4419C44.1964 43.4848 44.1964 43.4848 44.341 43.7151C44.341 43.7151 44.4856 43.9454 44.4428 44.1329L41.9676 53.2332C41.3623 53.2921 41.132 53.4367 40.9445 53.3939ZM31.4104 50.2277L40.7839 52.3708L43.0448 44.2078L32.9214 41.8933L31.4104 50.2277ZM27.9302 25.7596L12.3702 22.202C12.1827 22.1591 12.1827 22.1591 12.0381 21.9288C12.0381 21.9288 11.8935 21.6985 11.9364 21.511C12.2364 20.1987 13.1846 18.6401 14.1488 17.8742L16.6664 15.4907C17.4431 14.682 17.9467 14.2053 18.177 14.0607C18.2198 13.8732 18.3056 13.4983 18.477 12.7484C18.5627 12.3735 18.8359 12.0414 19.2966 11.7522C19.2966 11.7522 19.5269 11.6076 19.7144 11.6504L25.7135 13.022C25.9009 13.0649 25.9009 13.0649 26.0455 13.2952C26.3347 13.7559 26.4365 14.1737 26.3508 14.5486C26.2222 15.111 26.0936 15.6734 26.0507 15.8609C26.1953 16.0912 26.4417 16.7394 26.7898 17.8053L28.0216 21.046C28.3697 22.1119 28.5463 23.9277 28.4337 25.2829C28.3909 25.4704 28.3909 25.4704 28.1605 25.615C28.1177 25.8024 28.1177 25.8024 27.9302 25.7596ZM13.1469 21.3932L27.7696 24.7365C27.7964 23.7563 27.5341 22.3154 27.3306 21.4798L26.0988 18.2391C25.5632 17.1303 25.3169 16.4822 25.1723 16.2519C24.9848 16.209 25.1134 15.6466 25.4134 14.3343C25.4563 14.1468 25.4563 14.1468 25.3117 13.9165L19.6876 12.6306C19.6876 12.6306 19.4572 12.7752 19.4144 12.9627C19.1143 14.275 19.0286 14.6499 18.7983 14.7945C18.7554 14.982 18.209 15.6462 17.4752 16.2675L14.9575 18.6509C14.2237 19.2722 13.5487 20.4988 13.1469 21.3932ZM28.4025 9.8887L18.8416 7.70272C18.6541 7.65986 18.5095 7.42952 18.5523 7.24205L19.8382 1.61795C19.6936 1.38762 19.9239 1.24301 20.2989 1.32873L30.0473 3.55757C30.2348 3.60044 30.3794 3.83077 30.3365 4.01824L29.0935 9.45487C29.0078 9.82981 28.7775 9.97442 28.4025 9.8887ZM19.4308 6.85109L28.2419 8.86562L29.2706 4.36634L20.4595 2.35181L19.4308 6.85109Z" fill="#0077B6"/>
</g>
<defs>
<clipPath id="clip0_186_96">
<rect width="40.7692" height="65" fill="white" transform="translate(14.4873) rotate(12.8785)"/>
</clipPath>
</defs>
</svg>
