<svg width="59" height="74" viewBox="0 0 59 74" fill="none" xmlns="http://www.w3.org/2000/svg">
<g id="Frame" opacity="0.5" clip-path="url(#clip0_186_90)">
<path id="Vector" d="M27.5243 31.6504L26.956 31.7916C26.3877 31.9329 26.2464 31.3646 26.1052 30.7963C25.9639 30.228 21.7198 18.008 28.2634 10.3475C34.38 3.39663 41.4853 0.423762 42.0536 0.282511C42.6219 0.141259 43.3314 0.568301 43.4727 1.1366C43.6139 1.70489 50.128 15.7743 27.5243 31.6504ZM41.6233 3.40649C39.3501 3.97149 34.6592 6.94764 30.5333 12.197C26.4074 17.4463 27.6754 24.9754 28.5229 28.3851C43.7355 16.7598 42.4708 6.81625 41.6233 3.40649Z" fill="#0077B6"/>
<path id="Vector_2" d="M39.5474 67.8832L33.8645 69.2957C26.4766 71.132 16.405 62.1707 11.021 52.6477C7.47987 45.6836 7.20394 39.7181 10.617 36.4562C15.0254 32.3435 19.8542 32.35 23.9735 31.9296C25.1101 31.6471 26.388 31.9329 27.5246 31.6504C28.6612 31.3678 29.6565 30.5171 30.7931 30.2345C34.6299 28.6775 39.035 26.9792 44.7146 27.9811C49.2577 29.2655 51.6656 34.0977 51.2287 42.0505C51.6393 53.4131 46.9352 66.0469 39.5474 67.8832ZM18.2873 35.7565C16.5824 36.1803 14.4505 37.3136 12.4598 39.0152C9.90087 40.858 10.4626 45.5456 13.7212 51.3731C18.2544 59.9008 27.6165 68.4351 33.8677 66.8813L38.9824 65.61C45.2336 64.0563 49.5106 52.132 49.5238 42.4742C49.1066 35.9405 47.4083 31.5354 44.1431 30.5368C39.6 29.2524 35.3361 31.519 32.0676 32.9348C31.0723 33.7856 29.9357 34.0681 28.2308 34.4918C27.0942 34.7743 25.3894 35.1981 24.1115 34.9123C22.2654 34.7678 19.9922 35.3328 18.2873 35.7565Z" fill="#0077B6"/>
</g>
<defs>
<clipPath id="clip0_186_90">
<rect width="44.5045" height="65" fill="white" transform="translate(0 10.7351) rotate(-13.9582)"/>
</clipPath>
</defs>
</svg>
