<svg width="123" height="89" viewBox="0 0 123 89" fill="none" xmlns="http://www.w3.org/2000/svg">
<g id="Frame" opacity="0.2" clip-path="url(#clip0_186_49)">
<path id="Vector" d="M87.6975 83.4782C77.4319 81.1224 70.6761 71.5447 71.7914 61.3032L64.1655 59.5532C62.8818 61.1111 61.372 62.3083 59.1843 62.4238L58.9151 63.597L59.795 63.7989C60.3816 63.9335 60.8336 64.6547 60.6316 65.5347C60.4297 66.4146 59.7085 66.8666 59.1219 66.7319L53.2558 65.3858C52.6692 65.2512 52.2173 64.5299 52.4192 63.65C52.6211 62.7701 53.3423 62.3181 53.9289 62.4528L54.8088 62.6547L55.0781 61.4815C52.6403 59.9958 51.1929 56.8849 51.866 53.9519C52.1352 52.7787 52.7651 51.3795 53.8469 50.7015L40.5997 26.3579L37.6283 31.2335C43.9272 36.0752 46.9374 44.4847 45.1874 52.1105C42.6297 63.256 31.4508 70.2618 20.3053 67.7042C9.15982 65.1465 2.15399 53.9676 4.71168 42.8221C7.26936 31.6766 18.4483 24.6708 29.5937 27.2285C30.7669 27.4977 31.9401 27.7669 33.3394 28.3968L42.7245 11.7169L32.1657 9.29382C31.5791 9.1592 31.2185 9.3852 31.0838 9.9718L30.1415 14.078C30.0069 14.6646 30.2329 15.0252 30.8195 15.1599L33.7525 15.8329C35.2191 16.1695 36.123 17.6119 35.7865 19.0784C35.45 20.5449 34.0075 21.4489 32.541 21.1124L29.608 20.4393C29.3147 20.372 29.3147 20.372 29.0214 20.3047C26.1557 19.3383 24.1217 16.0928 24.7948 13.1598L25.7371 9.05357C26.5448 5.53394 30.0836 3.5673 33.3099 4.30768L49.1482 7.94229C49.4415 8.00959 49.6675 8.3702 49.6002 8.66351L49.3983 9.54341C49.557 10.1973 49.4223 10.7839 49.0617 11.0099L48.9944 11.3032L48.7925 12.1831C48.7252 12.4764 48.3646 12.7024 48.0713 12.6351L43.7056 20.8957L82.1282 29.713L82.5321 27.9532L75.4928 26.3378C74.0263 26.0013 73.4156 24.6261 73.6849 23.4529C74.0214 21.9864 75.3965 21.3758 76.5697 21.645L91.5281 25.0777C92.9946 25.4142 93.6053 26.7893 93.3361 27.9625C92.9996 29.4291 91.6244 30.0397 90.4512 29.7705L87.5182 29.0974L86.9797 31.4438L89.6774 42.5603C91.9325 42.1516 94.3462 42.3967 96.6926 42.9352C107.838 45.4929 114.844 56.6718 112.286 67.8173C110.022 79.03 98.8429 86.0359 87.6975 83.4782ZM63.9154 57.952L72.4212 59.904C72.7145 59.9713 72.9405 60.3319 72.8732 60.6252C71.5319 70.5061 78.0617 79.7232 87.7407 81.9444C98.2996 84.3674 108.464 77.7463 110.82 67.4807C113.243 56.9219 106.622 46.7575 96.3561 44.4017C94.0096 43.8633 91.5959 43.6181 89.3409 44.0268C89.0476 43.9595 88.7543 43.8922 88.5283 43.5316L85.4459 31.4006L85.5132 31.1073L86.1863 28.1743C86.2536 27.881 86.6142 27.655 86.9075 27.7223L90.4271 28.53C91.0138 28.6646 91.735 28.2126 91.8696 27.626C92.0042 27.0394 91.8455 26.3855 91.2589 26.2509L76.3005 22.8182C75.7139 22.6836 74.9927 23.1356 74.8581 23.7222C74.7234 24.3088 75.1754 25.03 75.762 25.1646L83.3879 26.9146C83.6812 26.9819 83.9072 27.3425 83.8399 27.6358L83.1668 30.5688C83.0995 30.8621 82.7389 31.0881 82.4456 31.0208L42.5565 21.867C42.2632 21.7997 42.2632 21.7997 42.0372 21.4391C42.1045 21.1458 41.8112 21.0785 42.1718 20.8525L47.326 11.8466C47.3933 11.5533 47.6866 11.6206 47.6866 11.6206L47.8212 11.034C47.8212 11.034 47.8212 11.034 47.8885 10.7407L47.9558 10.4474C48.0231 10.1541 48.0905 9.86079 48.1578 9.56748L48.2251 9.27418L32.9734 5.77419C30.3336 5.16842 27.8094 6.75039 27.2036 9.3901L26.2613 13.4963C25.7228 15.8427 27.3048 18.367 29.6512 18.9055C29.9445 18.9728 29.9445 18.9728 29.9445 18.9728L32.8775 19.6459C33.4642 19.7805 34.1854 19.3285 34.32 18.7419C34.4546 18.1553 34.0026 17.4341 33.416 17.2994L30.483 16.6264C29.3098 16.3571 28.3385 15.208 28.675 13.7415L29.55 9.92856C29.8193 8.75536 30.9684 7.78407 32.4349 8.12061L43.8737 10.7456C44.167 10.8129 44.167 10.8129 44.393 11.1735C44.3257 11.4668 44.619 11.5341 44.2584 11.7601L33.8827 30.0652C33.8154 30.3585 33.4548 30.5845 32.8682 30.4499C31.8296 29.5941 30.4304 28.9642 29.2572 28.695C18.6983 26.2719 8.53395 32.8931 6.17819 43.1586C3.75511 53.7175 10.3763 63.8819 20.6418 66.2377C31.2007 68.6607 41.3651 62.0396 43.7208 51.774C45.4708 44.1481 42.6194 36.3926 36.2532 31.8442C35.9599 31.7769 35.8012 31.123 36.1618 30.897L39.763 24.6222C39.8303 24.3289 40.1236 24.3962 40.4842 24.1702C40.7775 24.2375 41.0708 24.3048 41.0035 24.5981L55.1547 50.3841C55.3807 50.7448 55.3134 51.0381 54.9528 51.2641C54.1643 52.0093 53.3084 53.0479 53.0392 54.2211C52.5007 56.5676 53.7221 59.3178 55.9339 60.4429C56.2272 60.5102 56.4532 60.8708 56.3859 61.1641L55.9147 63.2172C55.8474 63.5105 55.4868 63.7365 55.1935 63.6692L53.727 63.3327C53.727 63.3327 53.727 63.3327 53.6597 63.626L53.5924 63.9193L59.1651 65.1981C59.1651 65.1981 59.1651 65.1981 59.2324 64.9048L59.2997 64.6115L57.8332 64.275C57.5399 64.2077 57.3139 63.8471 57.3812 63.5538L57.8524 61.5006C57.9197 61.2073 58.2803 60.9813 58.5736 61.0487C60.468 60.8659 62.2038 60.0292 63.1942 58.404C63.2615 58.1107 63.6221 57.8847 63.9154 57.952ZM88.909 78.1988C81.2831 76.4488 76.1093 69.3953 76.9794 61.5675C77.0467 61.2742 77.0467 61.2742 77.4073 61.0482C77.4073 61.0482 77.768 60.8222 78.0613 60.8895L94.4862 64.6587L90.519 48.3109C90.5863 48.0176 90.5863 48.0176 90.6536 47.7243C90.7209 47.431 91.0142 47.4983 91.0142 47.4983C92.9086 47.3156 94.4425 47.3588 96.2023 47.7626C104.415 49.6473 109.906 58.0086 107.954 66.5143C106.002 75.0201 97.1214 80.0834 88.909 78.1988ZM78.018 62.4233C77.7105 69.1452 82.4996 75.1842 88.9522 76.6649C96.5781 78.4149 104.151 73.669 105.901 66.0432C107.651 58.4173 102.905 50.8445 95.2791 49.0945C94.1059 48.8253 92.5721 48.7821 91.3316 48.8062L95.5248 65.5145C95.4575 65.8079 95.3901 66.1012 95.3901 66.1012C95.3228 66.3945 95.0295 66.3271 94.7362 66.2598L78.018 62.4233ZM21.4495 62.718C13.2371 60.8334 7.74589 52.4721 9.69781 43.9663C11.8517 34.5807 22.0401 29.2 31.0219 33.1137C31.3152 33.181 31.3152 33.181 31.5412 33.5416C31.4739 33.8349 31.4739 33.8349 31.4066 34.1282L24.1369 46.9711C23.709 47.4904 24.161 48.2116 24.6803 48.6395C25.1996 49.0674 25.9208 48.6155 26.3487 48.0962L33.5511 35.5466C33.6184 35.2533 33.9117 35.3206 33.9117 35.3206C34.205 35.3879 34.205 35.3879 34.4983 35.4552C39.172 39.3064 41.2541 45.033 39.9079 50.899C37.956 59.4048 29.662 64.6026 21.4495 62.718ZM28.0457 33.9744C20.4198 32.2244 12.847 36.9703 11.097 44.5962C9.34702 52.222 14.0929 59.7948 21.7188 61.5448C29.3446 63.2948 36.9174 58.5489 38.6674 50.9231C39.8116 45.9369 38.2488 40.6383 34.3878 37.2823L27.6133 49.3126C27.0508 50.4185 26.0363 50.8032 24.863 50.534C24.5697 50.4667 24.2764 50.3993 23.9831 50.332C22.5839 49.7022 22.3339 48.1011 22.9637 46.7019L29.8055 34.3783C29.2189 34.2437 28.6323 34.109 28.0457 33.9744ZM89.3846 61.3268L78.2391 58.7691C77.9458 58.7018 77.9458 58.7018 77.7198 58.3412C77.7198 58.3412 77.4938 57.9805 77.5611 57.6872C79.09 53.7156 82.3114 50.4412 86.0762 48.8351C86.3695 48.9024 86.3695 48.9024 86.6628 48.9697C86.9561 49.0371 86.8888 49.3304 86.8888 49.3304L89.8798 60.5142C89.8125 60.8075 89.7452 61.1008 89.7452 61.1008C90.0385 61.1681 89.6779 61.3941 89.3846 61.3268ZM79.4555 57.5045L88.8412 59.6583L86.033 50.3689C83.2154 51.8836 80.7825 54.4128 79.4555 57.5045ZM72.9597 57.5575L64.4539 55.6056C64.1606 55.5383 63.9346 55.1777 64.0019 54.8844C64.0692 54.5911 63.8432 54.2305 63.9105 53.9372C63.9778 53.6439 64.0452 53.3506 64.0452 53.3506L82.8352 36.0502C82.9025 35.7569 83.1958 35.8242 83.4891 35.8915C83.7824 35.9588 83.7151 36.2521 84.0084 36.3194L85.9126 44.1664C86.1386 44.527 85.778 44.753 85.4174 44.979C79.9842 47.1284 75.6136 51.3741 73.6809 57.1056C73.9069 57.4662 73.5463 57.6922 72.9597 57.5575ZM65.377 54.2737L72.7096 55.9564C74.575 50.5183 78.9456 46.2725 84.4461 43.8298L82.7919 37.584L65.1511 53.9131L65.377 54.2737ZM62.1026 51.0523C61.5833 50.6244 61.29 50.5571 60.9967 50.4898C60.7034 50.4225 60.4774 50.0619 60.5447 49.7686L61.1505 47.1288C61.2178 46.8355 61.5784 46.6095 61.8717 46.6769L62.4583 46.8115L58.3521 45.8692L58.9387 46.0038C59.232 46.0711 59.458 46.4317 59.3906 46.725L58.7849 49.3647C58.7176 49.658 58.357 49.884 58.0637 49.8167C57.7704 49.7494 57.4771 49.6821 57.1838 49.6148L44.3212 26.2857C44.0952 25.9251 44.1625 25.6318 44.4559 25.6991C44.5232 25.4058 44.8165 25.4731 45.1098 25.5404L80.0127 33.55C80.306 33.6173 80.5993 33.6846 80.532 33.9779C80.4647 34.2712 80.3974 34.5645 80.3974 34.5645L62.3959 51.1196C62.3959 51.1196 62.3959 51.1196 62.1026 51.0523ZM62.1458 49.5185L78.6376 34.1607L46.6677 26.8242L57.3375 46.2538C57.4048 45.9605 57.4048 45.9605 57.4721 45.6672C57.6741 44.7873 58.3953 44.3353 58.9819 44.47L63.3814 45.4796C63.968 45.6142 64.42 46.3354 64.2181 47.2153C64.0162 48.0952 63.295 48.5472 62.7084 48.4126L62.4391 49.5858L62.1458 49.5185ZM57.7895 46.9751L58.2415 47.6963L58.3761 47.1097C58.0828 47.0424 57.7895 46.9751 57.7895 46.9751Z" fill="#0077B6"/>
</g>
<defs>
<clipPath id="clip0_186_49">
<rect width="110.741" height="65" fill="white" transform="translate(14.5386) rotate(12.9246)"/>
</clipPath>
</defs>
</svg>
