<svg width="100" height="101" viewBox="0 0 100 101" fill="none" xmlns="http://www.w3.org/2000/svg">
<g id="Calender">
<path id="Vector" d="M71.5312 18.6172V13.0547H65.2812V18.6172H34.5625V13.0547H28.3125V18.6172H8.84375V90.6797H90.625V18.6172H71.5312ZM84.375 84.4297H15.0938V45.5859H84.375V84.4297ZM15.0938 39.3359V24.8672H28.3125V30.4297H34.5625V24.8672H65.2812V30.4297H71.5312V24.8672H84.375V39.3359H15.0938Z" fill="#231F20"/>
<path id="Vector_2" d="M47.9375 50.0547H41.75V56.3047H47.9375V50.0547Z" fill="#231F20"/>
<path id="Vector_3" d="M37.375 61.8672H31.1875V68.1172H37.375V61.8672Z" fill="#231F20"/>
<path id="Vector_4" d="M47.9375 61.8672H41.75V68.1172H47.9375V61.8672Z" fill="#231F20"/>
<path id="Vector_5" d="M26.7812 61.8672H20.5938V68.1172H26.7812V61.8672Z" fill="#231F20"/>
<path id="Vector_6" d="M37.375 73.7109H31.1875V79.9609H37.375V73.7109Z" fill="#231F20"/>
<path id="Vector_7" d="M47.9375 73.7109H41.75V79.9609H47.9375V73.7109Z" fill="#231F20"/>
<path id="Vector_8" d="M26.7812 73.7109H20.5938V79.9609H26.7812V73.7109Z" fill="#231F20"/>
<path id="Vector_9" d="M69.1875 50.0547H63V56.3047H69.1875V50.0547Z" fill="#231F20"/>
<path id="Vector_10" d="M79.75 50.0547H73.5625V56.3047H79.75V50.0547Z" fill="#231F20"/>
<path id="Vector_11" d="M58.5625 50.0547H52.4062V56.3047H58.5625V50.0547Z" fill="#231F20"/>
<path id="Vector_12" d="M69.1875 61.8672H63V68.1172H69.1875V61.8672Z" fill="#231F20"/>
<path id="Vector_13" d="M79.75 61.8672H73.5625V68.1172H79.75V61.8672Z" fill="#231F20"/>
<path id="Vector_14" d="M58.5625 61.8672H52.4062V68.1172H58.5625V61.8672Z" fill="#231F20"/>
<path id="Vector_15" d="M58.5625 73.7109H52.4062V79.9609H58.5625V73.7109Z" fill="#231F20"/>
</g>
</svg>
