<svg width="100" height="101" viewBox="0 0 100 101" fill="none" xmlns="http://www.w3.org/2000/svg">
<g id="Communication">
<path id="Vector" d="M49.4688 47.0234C41.875 47.0234 35.7031 40.8516 35.7031 33.2578C35.7031 25.6641 41.875 19.4922 49.4688 19.4922C57.0625 19.4922 63.2344 25.6641 63.2344 33.2578C63.2344 40.8516 57.0625 47.0234 49.4688 47.0234ZM49.4688 26.7266C45.875 26.7266 42.9531 29.6484 42.9531 33.2422C42.9531 36.8359 45.875 39.7578 49.4688 39.7578C53.0625 39.7578 55.9844 36.8359 55.9844 33.2422C55.9844 29.6484 53.0625 26.7266 49.4688 26.7266ZM75.5781 82.9453H24.4219C22.4219 82.9453 20.7969 81.3203 20.7969 79.3203C20.7969 63.2266 33.8906 50.1172 50 50.1172C66.1094 50.1172 79.2031 63.2109 79.2031 79.3203C79.2031 81.3359 77.5781 82.9453 75.5781 82.9453ZM28.3437 75.7109H71.6563C69.9219 65.3203 60.875 57.3828 50 57.3828C39.125 57.3672 30.0781 65.3203 28.3437 75.7109ZM79.1875 39.3984C73.1875 39.3984 68.3125 34.5234 68.3125 28.5234C68.3125 22.5234 73.1875 17.6484 79.1875 17.6484C85.1875 17.6484 90.0625 22.5234 90.0625 28.5234C90.0625 34.5234 85.1875 39.3984 79.1875 39.3984ZM79.1875 24.8984C77.1875 24.8984 75.5625 26.5234 75.5625 28.5234C75.5625 30.5234 77.1875 32.1484 79.1875 32.1484C81.1875 32.1484 82.8125 30.5234 82.8125 28.5234C82.8125 26.5234 81.1875 24.8984 79.1875 24.8984Z" fill="#231F20"/>
<path id="Vector_2" d="M96.375 65.3828H68.5781C67.9944 65.3827 67.4193 65.2417 66.9017 64.9718C66.3841 64.702 65.9393 64.3112 65.6049 63.8327C65.2706 63.3542 65.0567 62.8021 64.9813 62.2233C64.9059 61.6445 64.9713 61.056 65.1719 60.5078C64.3438 61.0234 63.3281 61.2109 62.3125 60.9453C61.8528 60.8243 61.4215 60.614 61.0431 60.3262C60.6648 60.0385 60.3468 59.6791 60.1074 59.2685C59.868 58.8578 59.7118 58.4041 59.6478 57.9331C59.5838 57.4621 59.6132 56.9831 59.7344 56.5234C62.0938 47.5547 70.2344 41.2891 79.5156 41.2891C90.7969 41.2891 99.9844 50.4766 99.9844 61.7578C99.9885 62.2337 99.8981 62.7057 99.7184 63.1463C99.5387 63.587 99.2732 63.9875 98.9374 64.3248C98.6016 64.662 98.2022 64.9292 97.7623 65.1108C97.3225 65.2924 96.8509 65.3849 96.375 65.3828ZM79.5312 48.5391C73.5312 48.5391 68.2812 52.5859 66.75 58.3672C66.7188 58.4766 66.6875 58.5859 66.6406 58.6953C67.2031 58.3359 67.8594 58.1328 68.5781 58.1328H92.2344C90.6719 52.6016 85.5625 48.5391 79.5312 48.5391ZM20.125 39.3984C14.125 39.3984 9.25 34.5234 9.25 28.5234C9.25 22.5234 14.125 17.6484 20.125 17.6484C26.125 17.6484 31 22.5234 31 28.5234C31 34.5234 26.1094 39.3984 20.125 39.3984ZM20.125 24.8984C18.125 24.8984 16.5 26.5234 16.5 28.5234C16.5 30.5234 18.125 32.1484 20.125 32.1484C22.125 32.1484 23.75 30.5234 23.75 28.5234C23.7344 26.5234 22.1094 24.8984 20.125 24.8984ZM31.4062 65.3828H3.625C1.625 65.3828 0 63.7734 0 61.7734C0 50.4922 9.17188 41.3047 20.4688 41.3047C29.75 41.3047 37.8906 47.5703 40.25 56.5234C40.7656 58.4609 39.6094 60.4453 37.6719 60.9453C36.6562 61.2109 35.625 61.0234 34.7969 60.4922C34.9375 60.8828 35.0312 61.3203 35.0312 61.7578C35.0312 63.7734 33.4062 65.3828 31.4062 65.3828ZM7.75 58.1484H31.4062C32.125 58.1484 32.7969 58.3516 33.3594 58.7109C33.3125 58.6016 33.2812 58.4922 33.25 58.3672C32.5006 55.5494 30.8412 53.0582 28.5298 51.2808C26.2184 49.5035 23.3845 48.5396 20.4688 48.5391C14.4219 48.5391 9.32812 52.6016 7.75 58.1484Z" fill="#231F20"/>
</g>
</svg>
