<svg width="50" height="51" viewBox="0 0 50 51" fill="none" xmlns="http://www.w3.org/2000/svg">
<g id="&#240;&#159;&#166;&#134; icon &#34;brand tiktok&#34;">
<path id="Vector" d="M18.75 25.4997C17.1018 25.4997 15.4906 25.9884 14.1202 26.9041C12.7498 27.8198 11.6817 29.1213 11.051 30.644C10.4202 32.1667 10.2552 33.8423 10.5768 35.4588C10.8983 37.0753 11.692 38.5601 12.8574 39.7256C14.0228 40.891 15.5077 41.6847 17.1242 42.0062C18.7407 42.3278 20.4163 42.1627 21.939 41.532C23.4617 40.9013 24.7632 39.8332 25.6789 38.4628C26.5946 37.0923 27.0833 35.4812 27.0833 33.833V8.83301C27.0833 11.5957 28.1808 14.2452 30.1343 16.1987C32.0878 18.1522 34.7373 19.2497 37.5 19.2497" stroke="black" stroke-width="4" stroke-linecap="round" stroke-linejoin="round"/>
</g>
</svg>
