<svg width="50" height="51" viewBox="0 0 50 51" fill="none" xmlns="http://www.w3.org/2000/svg">
<g id="&#240;&#159;&#166;&#134; icon &#34;brand instagram&#34;">
<path id="Vector" d="M33.3334 8.83301H16.6667C12.0643 8.83301 8.33337 12.564 8.33337 17.1663V33.833C8.33337 38.4354 12.0643 42.1663 16.6667 42.1663H33.3334C37.9357 42.1663 41.6667 38.4354 41.6667 33.833V17.1663C41.6667 12.564 37.9357 8.83301 33.3334 8.83301Z" stroke="black" stroke-width="4" stroke-linecap="round" stroke-linejoin="round"/>
<path id="Vector_2" d="M25 31.75C28.4518 31.75 31.25 28.9518 31.25 25.5C31.25 22.0482 28.4518 19.25 25 19.25C21.5482 19.25 18.75 22.0482 18.75 25.5C18.75 28.9518 21.5482 31.75 25 31.75Z" stroke="black" stroke-width="4" stroke-linecap="round" stroke-linejoin="round"/>
<path id="Vector_3" d="M34.375 16.125V16.1271" stroke="black" stroke-width="4" stroke-linecap="round" stroke-linejoin="round"/>
</g>
</svg>
