<svg width="100" height="89" viewBox="0 0 100 89" fill="none" xmlns="http://www.w3.org/2000/svg">
<g id="Laptop" clip-path="url(#clip0_8_28)">
<path id="Vector" d="M83.3333 66.3828C87.9375 66.3828 91.625 63.0895 91.625 59.0235L91.6667 18.5473C91.6667 14.4813 87.9375 11.188 83.3333 11.188H16.6667C12.0625 11.188 8.33333 14.4813 8.33333 18.5473V59.0235C8.33333 63.0895 12.0625 66.3828 16.6667 66.3828H0C0 70.4488 3.72917 73.7421 8.33333 73.7421H91.6667C96.2708 73.7421 100 70.4488 100 66.3828H83.3333ZM16.6667 18.5473H83.3333V59.0235H16.6667V18.5473ZM50 70.0625C47.7083 70.0625 45.8333 68.4066 45.8333 66.3828C45.8333 64.359 47.7083 62.7031 50 62.7031C52.2917 62.7031 54.1667 64.359 54.1667 66.3828C54.1667 68.4066 52.2917 70.0625 50 70.0625Z" fill="#231F20"/>
</g>
<defs>
<clipPath id="clip0_8_28">
<rect width="100" height="88.3117" fill="white" transform="translate(0 0.148926)"/>
</clipPath>
</defs>
</svg>
