<svg width="100" height="101" viewBox="0 0 100 101" fill="none" xmlns="http://www.w3.org/2000/svg">
<g id="Museum">
<path id="Vector" d="M81.25 45.617C82.1125 45.617 82.8125 44.917 82.8125 44.0545V40.9295H84.375C85.2375 40.9295 85.9375 40.2295 85.9375 39.367V33.2717C85.9437 33.2186 85.9688 33.1717 85.9688 33.117C85.9688 32.4967 85.6062 31.9592 85.0813 31.7076L50.8797 8.38887C50.3484 8.02793 49.65 8.02793 49.1188 8.38887L14.7437 31.8264C14.3391 32.1029 14.0625 32.6264 14.0625 33.117V39.367C14.0625 40.2295 14.7625 40.9295 15.625 40.9295H17.1875V44.0545C17.1875 44.917 17.8875 45.617 18.75 45.617H20.3125V78.4295H18.75C17.8875 78.4295 17.1875 79.1295 17.1875 79.992V83.117H15.625C14.7625 83.117 14.0625 83.817 14.0625 84.6795V90.9295C14.0625 91.792 14.7625 92.492 15.625 92.492H84.375C85.2375 92.492 85.9375 91.792 85.9375 90.9295V84.6795C85.9375 83.817 85.2375 83.117 84.375 83.117H82.8125V79.992C82.8125 79.1295 82.1125 78.4295 81.25 78.4295H79.6875V45.617H81.25ZM79.6875 42.492H71.875V40.9295H79.6875V42.492ZM70.3125 78.4295C69.45 78.4295 68.75 79.1295 68.75 79.992V83.117H65.625V79.992C65.625 79.1295 64.925 78.4295 64.0625 78.4295H62.5V45.617H64.0625C64.925 45.617 65.625 44.917 65.625 44.0545V40.9295H68.75V44.0545C68.75 44.917 69.45 45.617 70.3125 45.617H71.875V78.4295H70.3125ZM54.6875 83.117V81.5545H62.5V83.117H54.6875ZM48.4375 83.117V79.992C48.4375 79.1295 47.7375 78.4295 46.875 78.4295H45.3125V45.617H46.875C47.7375 45.617 48.4375 44.917 48.4375 44.0545V40.9295H51.5625V44.0545C51.5625 44.917 52.2625 45.617 53.125 45.617H54.6875V78.4295H53.125C52.2625 78.4295 51.5625 79.1295 51.5625 79.992V83.117H48.4375ZM37.5 83.117V81.5545H45.3125V83.117H37.5ZM31.25 83.117V79.992C31.25 79.1295 30.55 78.4295 29.6875 78.4295H28.125V45.617H29.6875C30.55 45.617 31.25 44.917 31.25 44.0545V40.9295H34.375V44.0545C34.375 44.917 35.075 45.617 35.9375 45.617H37.5V78.4295H35.9375C35.075 78.4295 34.375 79.1295 34.375 79.992V83.117H31.25ZM45.3125 40.9295V42.492H37.5V40.9295H45.3125ZM42.1875 78.4295H40.625V45.617H42.1875V78.4295ZM62.5 40.9295V42.492H54.6875V40.9295H62.5ZM59.375 78.4295H57.8125V45.617H59.375V78.4295ZM17.1875 37.8045V34.6795H82.8125V37.8045H17.1875ZM50 11.5701L79.3094 31.5545H20.6906L50 11.5701ZM28.125 40.9295V42.492H20.3125V40.9295H28.125ZM23.4375 45.617H25V78.4295H23.4375V45.617ZM20.3125 81.5545H28.125V83.117H20.3125V81.5545ZM82.8125 89.367H17.1875V86.242H82.8125V89.367ZM71.875 83.117V81.5545H79.6875V83.117H71.875ZM76.5625 78.4295H75V45.617H76.5625V78.4295Z" fill="#231F20"/>
</g>
</svg>
